<?xml version="1.0" encoding="UTF-8"?>
<svg version="1.1" xmlns="http://www.w3.org/2000/svg" width="280" height="280">
<path d="M0 0 C92.4 0 184.8 0 280 0 C280 92.4 280 184.8 280 280 C187.6 280 95.2 280 0 280 C0 187.6 0 95.2 0 0 Z " fill="#ECEEEE" transform="translate(0,0)"/>
<path d="M0 0 C6.6 0 13.2 0 20 0 C20 6.6 20 13.2 20 20 C21.83626953 19.97905273 23.67253906 19.95810547 25.56445312 19.93652344 C31.65520975 19.87182694 37.7458846 19.82597267 43.83689117 19.79275131 C47.52719955 19.7719429 51.21713358 19.74375081 54.90722656 19.69824219 C58.47342061 19.65454057 62.03925631 19.63081224 65.60569763 19.62049103 C67.61750112 19.60958506 69.62916196 19.57839809 71.64074707 19.54681396 C80.07611127 19.54475983 86.03569775 20.14284105 92.3125 26.25 C94.95897772 30.5627785 97 34.89031048 97 40 C97.99 39.67 98.98 39.34 100 39 C100.80212628 37.12612784 100.80212628 37.12612784 101.1875 34.9375 C101.34605469 34.20402344 101.50460938 33.47054687 101.66796875 32.71484375 C101.77753906 32.14894531 101.88710937 31.58304688 102 31 C101.34 31 100.68 31 100 31 C100 27.37 100 23.74 100 20 C102.296537 18.8517315 103.58313167 18.88438825 106.1328125 18.90234375 C107.22166748 18.90609009 107.22166748 18.90609009 108.33251953 18.90991211 C109.25403809 18.91901611 110.17555664 18.92812012 111.125 18.9375 C114.05375 18.958125 116.9825 18.97875 120 19 C120 12.73 120 6.46 120 0 C126.6 0 133.2 0 140 0 C140 6.27 140 12.54 140 19 C145.28 19 150.56 19 156 19 C156 19.66 156 20.32 156 21 C156.721875 21.061875 157.44375 21.12375 158.1875 21.1875 C162.93205578 22.55814945 165.33669536 26.00504304 168 30 C168.1953125 32.48046875 168.1953125 32.48046875 168.125 35.1875 C168.10695312 36.08855469 168.08890625 36.98960937 168.0703125 37.91796875 C168.04710937 38.60503906 168.02390625 39.29210937 168 40 C170.64 40 173.28 40 176 40 C176 37.03 176 34.06 176 31 C174.02 31 172.04 31 170 31 C170.66 27.37 171.32 23.74 172 20 C180.25 20 188.5 20 197 20 C196.34 23.63 195.68 27.26 195 31 C192.69 31 190.38 31 188 31 C188 40.57 188 50.14 188 60 C178.76 60 169.52 60 160 60 C160 66.6 160 73.2 160 80 C166.6 80 173.2 80 180 80 C180 86.6 180 93.2 180 100 C186.6 100 193.2 100 200 100 C200 126.4 200 152.8 200 180 C173.6 180 147.2 180 120 180 C120 173.4 120 166.8 120 160 C113.4 160 106.8 160 100 160 C100 153.4 100 146.8 100 140 C93.4 140 86.8 140 80 140 C80 133.4 80 126.8 80 120 C73.4 120 66.8 120 60 120 C60 113.4 60 106.8 60 100 C53.4 100 46.8 100 40 100 C40 93.4 40 86.8 40 80 C33.4 80 26.8 80 20 80 C20 73.4 20 66.8 20 60 C18.26492187 60.04640625 16.52984375 60.0928125 14.7421875 60.140625 C12.45314224 60.17815033 10.16407833 60.21454967 7.875 60.25 C6.73289062 60.28351563 5.59078125 60.31703125 4.4140625 60.3515625 C-2.0450299 60.42666823 -6.14056067 60.44569741 -11 56 C-16.496579 50.05775243 -16.23920174 44.33272977 -16.60546875 36.58007812 C-16.47601838 32.98901947 -16.47601838 32.98901947 -18 30 C-17.57579749 26.25287781 -16.94957457 22.64540068 -16 19 C-14.083412 18.97287847 -12.1667127 18.95354903 -10.25 18.9375 C-8.64898437 18.92009766 -8.64898437 18.92009766 -7.015625 18.90234375 C-4 19 -4 19 0 20 C0 13.4 0 6.8 0 0 Z " fill="#ECEDEC" transform="translate(80,100)"/>
<path d="M0 0 C6.6 0 13.2 0 20 0 C20 6.6 20 13.2 20 20 C17.36 20 14.72 20 12 20 C12 28.91 12 37.82 12 47 C14.64 47 17.28 47 20 47 C19.34 51.29 18.68 55.58 18 60 C12.06 60 6.12 60 0 60 C0 66.6 0 73.2 0 80 C6.6 80 13.2 80 20 80 C20 86.6 20 93.2 20 100 C26.6 100 33.2 100 40 100 C40 106.6 40 113.2 40 120 C46.6 120 53.2 120 60 120 C60 126.6 60 133.2 60 140 C66.6 140 73.2 140 80 140 C80 146.6 80 153.2 80 160 C86.6 160 93.2 160 100 160 C100 166.6 100 173.2 100 180 C53.8 180 7.6 180 -40 180 C-40 133.8 -40 87.6 -40 40 C-38.35 40 -36.7 40 -35 40 C-35.09539063 38.90300781 -35.19078125 37.80601562 -35.2890625 36.67578125 C-35.40165961 35.22140188 -35.51360442 33.7669719 -35.625 32.3125 C-35.68945312 31.59126953 -35.75390625 30.87003906 -35.8203125 30.12695312 C-36.13102342 25.87409746 -35.97020088 22.81256429 -34 19 C-11.08868502 18.80122324 -11.08868502 18.80122324 0 20 C0 13.4 0 6.8 0 0 Z " fill="#EDEDED" transform="translate(40,100)"/>
<path d="M0 0 C6.6 0 13.2 0 20 0 C20 6.27 20 12.54 20 19 C25.28 19 30.56 19 36 19 C36 19.66 36 20.32 36 21 C36.721875 21.061875 37.44375 21.12375 38.1875 21.1875 C42.93205578 22.55814945 45.33669536 26.00504304 48 30 C48.1953125 32.48046875 48.1953125 32.48046875 48.125 35.1875 C48.10695313 36.08855469 48.08890625 36.98960937 48.0703125 37.91796875 C48.04710937 38.60503906 48.02390625 39.29210937 48 40 C50.64 40 53.28 40 56 40 C56 37.03 56 34.06 56 31 C54.02 31 52.04 31 50 31 C50.66 27.37 51.32 23.74 52 20 C60.25 20 68.5 20 77 20 C76.34 23.63 75.68 27.26 75 31 C72.69 31 70.38 31 68 31 C68 40.57 68 50.14 68 60 C58.76 60 49.52 60 40 60 C40 66.6 40 73.2 40 80 C46.6 80 53.2 80 60 80 C60 86.6 60 93.2 60 100 C66.6 100 73.2 100 80 100 C80 119.8 80 139.6 80 160 C73.4 160 66.8 160 60 160 C60 153.4 60 146.8 60 140 C53.4 140 46.8 140 40 140 C40 133.4 40 126.8 40 120 C33.4 120 26.8 120 20 120 C20 113.4 20 106.8 20 100 C13.4 100 6.8 100 0 100 C0 93.4 0 86.8 0 80 C-6.6 80 -13.2 80 -20 80 C-20 73.73 -20 67.46 -20 61 C-16.535 60.505 -16.535 60.505 -13 60 C-13 59.67 -13 59.34 -13 59 C-16.96 59 -20.92 59 -25 59 C-22.83322193 49.61796092 -20.64080064 40.2628083 -18 31 C-18.66 31 -19.32 31 -20 31 C-20 27.37 -20 23.74 -20 20 C-17.703463 18.8517315 -16.41686833 18.88438825 -13.8671875 18.90234375 C-13.14128418 18.90484131 -12.41538086 18.90733887 -11.66748047 18.90991211 C-10.74596191 18.91901611 -9.82444336 18.92812012 -8.875 18.9375 C-5.94625 18.958125 -3.0175 18.97875 0 19 C0 12.73 0 6.46 0 0 Z " fill="#EBEEEC" transform="translate(200,100)"/>
<path d="M0 0 C6.6 0 13.2 0 20 0 C20 6.6 20 13.2 20 20 C28.58 20 37.16 20 46 20 C45.67 23.3 45.34 26.6 45 30 C41.04 30 37.08 30 33 30 C33 31.65 33 33.3 33 35 C37.29 35 41.58 35 46 35 C46 36.65 46 38.3 46 40 C50.62 40 55.24 40 60 40 C60 46.6 60 53.2 60 60 C53.4 60 46.8 60 40 60 C40 66.6 40 73.2 40 80 C33.4 80 26.8 80 20 80 C20 73.4 20 66.8 20 60 C18.26492187 60.04640625 16.52984375 60.0928125 14.7421875 60.140625 C12.45314224 60.17815033 10.16407833 60.21454967 7.875 60.25 C6.73289062 60.28351563 5.59078125 60.31703125 4.4140625 60.3515625 C-2.0450299 60.42666823 -6.14056067 60.44569741 -11 56 C-16.496579 50.05775243 -16.23920174 44.33272977 -16.60546875 36.58007812 C-16.47601838 32.98901947 -16.47601838 32.98901947 -18 30 C-17.57579749 26.25287781 -16.94957457 22.64540068 -16 19 C-14.083412 18.97287847 -12.1667127 18.95354903 -10.25 18.9375 C-8.64898437 18.92009766 -8.64898437 18.92009766 -7.015625 18.90234375 C-4 19 -4 19 0 20 C0 13.4 0 6.8 0 0 Z " fill="#ECEEEE" transform="translate(80,100)"/>
<path d="M0 0 C6.6 0 13.2 0 20 0 C20 6.6 20 13.2 20 20 C17.36 20 14.72 20 12 20 C12 28.91 12 37.82 12 47 C14.64 47 17.28 47 20 47 C19.34 51.29 18.68 55.58 18 60 C12.06 60 6.12 60 0 60 C0 66.6 0 73.2 0 80 C-6.6 80 -13.2 80 -20 80 C-20 73.4 -20 66.8 -20 60 C-26.6 60 -33.2 60 -40 60 C-40 53.4 -40 46.8 -40 40 C-38.35 40 -36.7 40 -35 40 C-35.09539063 38.90300781 -35.19078125 37.80601562 -35.2890625 36.67578125 C-35.40165961 35.22140188 -35.51360442 33.7669719 -35.625 32.3125 C-35.68945312 31.59126953 -35.75390625 30.87003906 -35.8203125 30.12695312 C-36.13102342 25.87409746 -35.97020088 22.81256429 -34 19 C-11.08868502 18.80122324 -11.08868502 18.80122324 0 20 C0 13.4 0 6.8 0 0 Z " fill="#E8EBED" transform="translate(40,100)"/>
<path d="M0 0 C3.16634636 -0.11760715 6.33212074 -0.18771024 9.5 -0.25 C10.386875 -0.28351563 11.27375 -0.31703125 12.1875 -0.3515625 C18.3260964 -0.44183598 22.89376373 0.47258498 28 4 C31.53477183 7.71151042 32.22189115 10.39973275 32.25 15.375 C32.18629371 16.91760237 32.10956696 18.45997544 32 20 C34.64 20 37.28 20 40 20 C40 17.03 40 14.06 40 11 C38.02 11 36.04 11 34 11 C34.66 7.37 35.32 3.74 36 0 C44.25 0 52.5 0 61 0 C60.34 3.63 59.68 7.26 59 11 C56.69 11 54.38 11 52 11 C52 20.57 52 30.14 52 40 C42.76 40 33.52 40 24 40 C24 46.6 24 53.2 24 60 C17.4 60 10.8 60 4 60 C4 53.4 4 46.8 4 40 C3.01 40 2.02 40 1 40 C0.67 30.76 0.34 21.52 0 12 C-0.66 11.67 -1.32 11.34 -2 11 C-1.49800802 7.27091669 -0.95792977 3.63852314 0 0 Z " fill="#ECEDEC" transform="translate(216,120)"/>
<path d="M0 0 C5.89542759 0.09617843 9.7119873 0.78362007 14.58520508 4.3190918 C19.78306867 9.79052716 21.00483488 14.0993982 20.82739258 21.50268555 C20.29828296 27.65571842 18.69779741 31.64640645 14.02270508 35.7565918 C10.62790383 38.43592956 8.58329552 39.44574573 4.23364258 39.41674805 C3.46713379 39.41425049 2.700625 39.41175293 1.91088867 39.40917969 C0.45030029 39.39552368 0.45030029 39.39552368 -1.03979492 39.3815918 C-4.13354492 39.3609668 -7.22729492 39.3403418 -10.41479492 39.3190918 C-10.74479492 30.4090918 -11.07479492 21.4990918 -11.41479492 12.3190918 C-12.07479492 11.9890918 -12.73479492 11.6590918 -13.41479492 11.3190918 C-13.10696996 9.67237767 -12.79340258 8.02673603 -12.47729492 6.3815918 C-12.30327148 5.46506836 -12.12924805 4.54854492 -11.94995117 3.60424805 C-10.70657313 -1.70506696 -4.51471869 0.01265152 0 0 Z " fill="#33A34E" transform="translate(155.414794921875,119.680908203125)"/>
<path d="M0 0 C3.16634636 -0.11760715 6.33212074 -0.18771024 9.5 -0.25 C10.386875 -0.28351563 11.27375 -0.31703125 12.1875 -0.3515625 C18.34685346 -0.44214123 22.89724337 0.42814775 28 4 C30.30920222 6.24518474 30.89605605 7.38850992 31.43359375 10.55078125 C31.44542126 18.91283273 31.44542126 18.91283273 28.9375 22.875 C26.75994365 25.75045417 26.75994365 25.75045417 27.0625 28.5625 C28.1852234 31.48158085 29.57734363 34.21654188 31 37 C31 37.66 31 38.32 31 39 C26.71 39 22.42 39 18 39 C16.68 36.36 15.36 33.72 14 31 C13.67 33.97 13.34 36.94 13 40 C9.04 40 5.08 40 1 40 C0.67 30.76 0.34 21.52 0 12 C-0.66 11.67 -1.32 11.34 -2 11 C-1.49800802 7.27091669 -0.95792977 3.63852314 0 0 Z " fill="#38A451" transform="translate(216,120)"/>
<path d="M0 0 C3.54122827 -0.14601614 7.08167644 -0.2343056 10.625 -0.3125 C11.62402344 -0.35439453 12.62304688 -0.39628906 13.65234375 -0.43945312 C21.99630922 -0.57759825 21.99630922 -0.57759825 25.6484375 2.39453125 C28.12379119 5.13715735 28.87423506 6.09868456 29.375 9.6875 C28.87066843 14.1424289 26.80388766 16.61530704 24 20 C24.61875 20.268125 25.2375 20.53625 25.875 20.8125 C28 22 28 22 30 25 C30.67206627 29.36843077 30.32326486 32.16952606 27.7421875 35.70703125 C25.60181671 38.09163522 24.42414799 38.91295076 21.25683594 39.56298828 C18.01999902 39.68921163 14.85944864 39.61084207 11.625 39.4375 C10.50738281 39.40591797 9.38976562 39.37433594 8.23828125 39.34179688 C5.48947428 39.25956761 2.74610864 39.14471617 0 39 C-0.02505615 38.18732666 -0.0501123 37.37465332 -0.07592773 36.53735352 C-0.19149118 32.87889248 -0.31439584 29.22071472 -0.4375 25.5625 C-0.47681641 24.28310547 -0.51613281 23.00371094 -0.55664062 21.68554688 C-0.59853516 20.47060547 -0.64042969 19.25566406 -0.68359375 18.00390625 C-0.72025146 16.87799072 -0.75690918 15.7520752 -0.79467773 14.59204102 C-0.71218045 12.07146559 -0.71218045 12.07146559 -2 11 C-1.9140625 9.00390625 -1.9140625 9.00390625 -1.625 6.5625 C-1.53476563 5.75941406 -1.44453125 4.95632812 -1.3515625 4.12890625 C-1 2 -1 2 0 0 Z " fill="#085AA4" transform="translate(6,119)"/>
<path d="M0 0 C0.83265381 0.00523682 1.66530762 0.01047363 2.52319336 0.01586914 C3.42231445 0.0190918 4.32143555 0.02231445 5.24780273 0.02563477 C6.66609375 0.03820312 6.66609375 0.03820312 8.11303711 0.05102539 C9.06243164 0.05553711 10.01182617 0.06004883 10.98999023 0.06469727 C13.34356776 0.07652429 15.69702188 0.09300514 18.05053711 0.11352539 C21.02792611 9.38697413 23.79341055 18.63359385 26.05053711 28.11352539 C26.44534506 29.6137956 26.84105842 31.11382811 27.23803711 32.61352539 C28.05053711 36.11352539 28.05053711 36.11352539 28.05053711 40.11352539 C24.09053711 40.11352539 20.13053711 40.11352539 16.05053711 40.11352539 C15.72053711 38.13352539 15.39053711 36.15352539 15.05053711 34.11352539 C11.09053711 34.11352539 7.13053711 34.11352539 3.05053711 34.11352539 C2.55553711 36.58852539 2.55553711 36.58852539 2.05053711 39.11352539 C-1.90946289 39.11352539 -5.86946289 39.11352539 -9.94946289 39.11352539 C-7.78268482 29.73148632 -5.59026353 20.37633369 -2.94946289 11.11352539 C-3.60946289 11.11352539 -4.26946289 11.11352539 -4.94946289 11.11352539 C-4.64163793 9.46681127 -4.32807055 7.82116963 -4.01196289 6.17602539 C-3.83793945 5.25950195 -3.66391602 4.34297852 -3.48461914 3.39868164 C-2.72586321 0.15873843 -2.72586321 0.15873843 0 0 Z " fill="#36A450" transform="translate(184.949462890625,119.886474609375)"/>
<path d="M0 0 C3.63 0 7.26 0 11 0 C11.01981934 0.80743652 11.03963867 1.61487305 11.06005859 2.44677734 C11.15505899 6.08985875 11.26483912 9.73234686 11.375 13.375 C11.4059375 14.64601562 11.436875 15.91703125 11.46875 17.2265625 C11.50742188 18.43828125 11.54609375 19.65 11.5859375 20.8984375 C11.6173584 22.01911621 11.6487793 23.13979492 11.68115234 24.29443359 C11.73411203 27.14710412 11.73411203 27.14710412 14 29 C16.78237655 28.59471099 16.78237655 28.59471099 19 27 C19.15825258 25.00217874 19.25119171 22.99911166 19.31640625 20.99609375 C19.35830078 19.78115234 19.40019531 18.56621094 19.44335938 17.31445312 C19.48267578 16.03505859 19.52199219 14.75566406 19.5625 13.4375 C19.60568359 12.15423828 19.64886719 10.87097656 19.69335938 9.54882812 C19.799848 6.36600147 19.90185962 3.18309326 20 0 C23.63 0 27.26 0 31 0 C31.07455949 4.02009457 31.12879358 8.03991733 31.16479492 12.06054688 C31.17981428 13.42617816 31.20023608 14.79176176 31.22631836 16.15722656 C31.26300137 18.12803905 31.27818551 20.09921408 31.29296875 22.0703125 C31.3086792 23.25383301 31.32438965 24.43735352 31.34057617 25.65673828 C30.82639046 30.70423587 29.18966638 33.92639864 25.4375 37.3125 C20.26520495 40.89331965 15.15975845 40.82602125 9 40 C4.89273199 37.96397863 2.64223722 35.51024384 0.85546875 31.30859375 C-0.15677428 27.39366296 -0.41231547 23.71317795 -0.5625 19.6875 C-0.34028542 14.9656969 -0.34028542 14.9656969 -2 11 C-1.57318683 7.229817 -0.92099465 3.68397858 0 0 Z " fill="#095AA3" transform="translate(64,119)"/>
<path d="M0 0 C8.25 0 16.5 0 25 0 C24.67 3.3 24.34 6.6 24 10 C20.04 10 16.08 10 12 10 C12 11.65 12 13.3 12 15 C16.29 15 20.58 15 25 15 C24.34 17.64 23.68 20.28 23 23 C19.37 23 15.74 23 12 23 C12 24.65 12 26.3 12 28 C16.29 28 20.58 28 25 28 C24.34 31.3 23.68 34.6 23 38 C15.74 38 8.48 38 1 38 C1 29.09 1 20.18 1 11 C0.01 11 -0.98 11 -2 11 C-1.34 7.37 -0.68 3.74 0 0 Z " fill="#0358A5" transform="translate(101,120)"/>
<path d="M0 0 C8.25 0 16.5 0 25 0 C24.34 3.63 23.68 7.26 23 11 C20.69 11 18.38 11 16 11 C16 20.57 16 30.14 16 40 C12.04 40 8.08 40 4 40 C4 30.43 4 20.86 4 11 C2.02 11 0.04 11 -2 11 C-1.34 7.37 -0.68 3.74 0 0 Z " fill="#3BA554" transform="translate(252,120)"/>
<path d="M0 0 C6.6 0 13.2 0 20 0 C20 6.6 20 13.2 20 20 C23.96 20 27.92 20 32 20 C31.125 27.625 31.125 27.625 30 31 C31.98 31 33.96 31 36 31 C36 33.97 36 36.94 36 40 C33.36 40 30.72 40 28 40 C27.97421875 39.34773438 27.9484375 38.69546875 27.921875 38.0234375 C27.55209936 32.32553098 27.03071841 28.34893302 23 24 C20.69072958 22.69669931 18.52516675 21.87409618 16 21 C16 20.34 16 19.68 16 19 C10.72 19 5.44 19 0 19 C0 12.73 0 6.46 0 0 Z " fill="#FDFEFD" transform="translate(220,100)"/>
<path d="M0 0 C3.63 0 7.26 0 11 0 C11 9.24 11 18.48 11 28 C13.64 28 16.28 28 19 28 C18.34 31.96 17.68 35.92 17 40 C11.39 40 5.78 40 0 40 C-0.06058594 37.99035156 -0.12117188 35.98070312 -0.18359375 33.91015625 C-0.24615449 31.97077331 -0.30874857 30.03139127 -0.37231445 28.09204102 C-0.41571223 26.74085853 -0.4573837 25.38961947 -0.49731445 24.03833008 C-0.55489952 22.09963299 -0.61914298 20.16113724 -0.68359375 18.22265625 C-0.72025146 17.05484619 -0.75690918 15.88703613 -0.79467773 14.68383789 C-0.70076188 12.08220205 -0.70076188 12.08220205 -2 11 C-1.9140625 9.00390625 -1.9140625 9.00390625 -1.625 6.5625 C-1.53476562 5.75941406 -1.44453125 4.95632812 -1.3515625 4.12890625 C-1 2 -1 2 0 0 Z " fill="#075AA6" transform="translate(41,119)"/>
<path d="M0 0 C6.6 0 13.2 0 20 0 C20 6.6 20 13.2 20 20 C15.71 20 11.42 20 7 20 C6.67 20.66 6.34 21.32 6 22 C6 21.34 6 20.68 6 20 C-2.25 20 -10.5 20 -19 20 C-19 19.67 -19 19.34 -19 19 C-12.73 19 -6.46 19 0 19 C0 12.73 0 6.46 0 0 Z " fill="#E7EAEC" transform="translate(120,100)"/>
<path d="M0 0 C6.6 0 13.2 0 20 0 C20 6.27 20 12.54 20 19 C25.61 19 31.22 19 37 19 C37 19.33 37 19.66 37 20 C24.79 20 12.58 20 0 20 C0 13.4 0 6.8 0 0 Z " fill="#EBEDEC" transform="translate(240,100)"/>
<path d="M0 0 C6.6 0 13.2 0 20 0 C20 6.6 20 13.2 20 20 C13.4 20 6.8 20 0 20 C0 13.4 0 6.8 0 0 Z " fill="#FEFEFE" transform="translate(260,260)"/>
<path d="M0 0 C6.6 0 13.2 0 20 0 C20 6.6 20 13.2 20 20 C13.4 20 6.8 20 0 20 C0 13.4 0 6.8 0 0 Z " fill="#EDEDED" transform="translate(240,260)"/>
<path d="M0 0 C6.6 0 13.2 0 20 0 C20 6.6 20 13.2 20 20 C13.4 20 6.8 20 0 20 C0 13.4 0 6.8 0 0 Z " fill="#FEFEFE" transform="translate(220,260)"/>
<path d="M0 0 C6.6 0 13.2 0 20 0 C20 6.6 20 13.2 20 20 C13.4 20 6.8 20 0 20 C0 13.4 0 6.8 0 0 Z " fill="#EDEDED" transform="translate(200,260)"/>
<path d="M0 0 C6.6 0 13.2 0 20 0 C20 6.6 20 13.2 20 20 C13.4 20 6.8 20 0 20 C0 13.4 0 6.8 0 0 Z " fill="#FEFEFE" transform="translate(180,260)"/>
<path d="M0 0 C6.6 0 13.2 0 20 0 C20 6.6 20 13.2 20 20 C13.4 20 6.8 20 0 20 C0 13.4 0 6.8 0 0 Z " fill="#EDEDED" transform="translate(160,260)"/>
<path d="M0 0 C6.6 0 13.2 0 20 0 C20 6.6 20 13.2 20 20 C13.4 20 6.8 20 0 20 C0 13.4 0 6.8 0 0 Z " fill="#FEFEFE" transform="translate(140,260)"/>
<path d="M0 0 C6.6 0 13.2 0 20 0 C20 6.6 20 13.2 20 20 C13.4 20 6.8 20 0 20 C0 13.4 0 6.8 0 0 Z " fill="#EDEDED" transform="translate(120,260)"/>
<path d="M0 0 C6.6 0 13.2 0 20 0 C20 6.6 20 13.2 20 20 C13.4 20 6.8 20 0 20 C0 13.4 0 6.8 0 0 Z " fill="#FEFEFE" transform="translate(100,260)"/>
<path d="M0 0 C6.6 0 13.2 0 20 0 C20 6.6 20 13.2 20 20 C13.4 20 6.8 20 0 20 C0 13.4 0 6.8 0 0 Z " fill="#EDEDED" transform="translate(80,260)"/>
<path d="M0 0 C6.6 0 13.2 0 20 0 C20 6.6 20 13.2 20 20 C13.4 20 6.8 20 0 20 C0 13.4 0 6.8 0 0 Z " fill="#FEFEFE" transform="translate(60,260)"/>
<path d="M0 0 C6.6 0 13.2 0 20 0 C20 6.6 20 13.2 20 20 C13.4 20 6.8 20 0 20 C0 13.4 0 6.8 0 0 Z " fill="#EDEDED" transform="translate(40,260)"/>
<path d="M0 0 C6.6 0 13.2 0 20 0 C20 6.6 20 13.2 20 20 C13.4 20 6.8 20 0 20 C0 13.4 0 6.8 0 0 Z " fill="#FEFEFE" transform="translate(20,260)"/>
<path d="M0 0 C6.6 0 13.2 0 20 0 C20 6.6 20 13.2 20 20 C13.4 20 6.8 20 0 20 C0 13.4 0 6.8 0 0 Z " fill="#EDEDED" transform="translate(0,260)"/>
<path d="M0 0 C6.6 0 13.2 0 20 0 C20 6.6 20 13.2 20 20 C13.4 20 6.8 20 0 20 C0 13.4 0 6.8 0 0 Z " fill="#EDEDED" transform="translate(260,240)"/>
<path d="M0 0 C6.6 0 13.2 0 20 0 C20 6.6 20 13.2 20 20 C13.4 20 6.8 20 0 20 C0 13.4 0 6.8 0 0 Z " fill="#FEFEFE" transform="translate(240,240)"/>
<path d="M0 0 C6.6 0 13.2 0 20 0 C20 6.6 20 13.2 20 20 C13.4 20 6.8 20 0 20 C0 13.4 0 6.8 0 0 Z " fill="#EDEDED" transform="translate(220,240)"/>
<path d="M0 0 C6.6 0 13.2 0 20 0 C20 6.6 20 13.2 20 20 C13.4 20 6.8 20 0 20 C0 13.4 0 6.8 0 0 Z " fill="#FEFEFE" transform="translate(200,240)"/>
<path d="M0 0 C6.6 0 13.2 0 20 0 C20 6.6 20 13.2 20 20 C13.4 20 6.8 20 0 20 C0 13.4 0 6.8 0 0 Z " fill="#EDEDED" transform="translate(180,240)"/>
<path d="M0 0 C6.6 0 13.2 0 20 0 C20 6.6 20 13.2 20 20 C13.4 20 6.8 20 0 20 C0 13.4 0 6.8 0 0 Z " fill="#FEFEFE" transform="translate(160,240)"/>
<path d="M0 0 C6.6 0 13.2 0 20 0 C20 6.6 20 13.2 20 20 C13.4 20 6.8 20 0 20 C0 13.4 0 6.8 0 0 Z " fill="#EDEDED" transform="translate(140,240)"/>
<path d="M0 0 C6.6 0 13.2 0 20 0 C20 6.6 20 13.2 20 20 C13.4 20 6.8 20 0 20 C0 13.4 0 6.8 0 0 Z " fill="#FEFEFE" transform="translate(120,240)"/>
<path d="M0 0 C6.6 0 13.2 0 20 0 C20 6.6 20 13.2 20 20 C13.4 20 6.8 20 0 20 C0 13.4 0 6.8 0 0 Z " fill="#EDEDED" transform="translate(100,240)"/>
<path d="M0 0 C6.6 0 13.2 0 20 0 C20 6.6 20 13.2 20 20 C13.4 20 6.8 20 0 20 C0 13.4 0 6.8 0 0 Z " fill="#FEFEFE" transform="translate(80,240)"/>
<path d="M0 0 C6.6 0 13.2 0 20 0 C20 6.6 20 13.2 20 20 C13.4 20 6.8 20 0 20 C0 13.4 0 6.8 0 0 Z " fill="#EDEDED" transform="translate(60,240)"/>
<path d="M0 0 C6.6 0 13.2 0 20 0 C20 6.6 20 13.2 20 20 C13.4 20 6.8 20 0 20 C0 13.4 0 6.8 0 0 Z " fill="#FEFEFE" transform="translate(40,240)"/>
<path d="M0 0 C6.6 0 13.2 0 20 0 C20 6.6 20 13.2 20 20 C13.4 20 6.8 20 0 20 C0 13.4 0 6.8 0 0 Z " fill="#EDEDED" transform="translate(20,240)"/>
<path d="M0 0 C6.6 0 13.2 0 20 0 C20 6.6 20 13.2 20 20 C13.4 20 6.8 20 0 20 C0 13.4 0 6.8 0 0 Z " fill="#FEFEFE" transform="translate(0,240)"/>
<path d="M0 0 C6.6 0 13.2 0 20 0 C20 6.6 20 13.2 20 20 C13.4 20 6.8 20 0 20 C0 13.4 0 6.8 0 0 Z " fill="#FEFEFE" transform="translate(260,220)"/>
<path d="M0 0 C6.6 0 13.2 0 20 0 C20 6.6 20 13.2 20 20 C13.4 20 6.8 20 0 20 C0 13.4 0 6.8 0 0 Z " fill="#EDEDED" transform="translate(240,220)"/>
<path d="M0 0 C6.6 0 13.2 0 20 0 C20 6.6 20 13.2 20 20 C13.4 20 6.8 20 0 20 C0 13.4 0 6.8 0 0 Z " fill="#FEFEFE" transform="translate(220,220)"/>
<path d="M0 0 C6.6 0 13.2 0 20 0 C20 6.6 20 13.2 20 20 C13.4 20 6.8 20 0 20 C0 13.4 0 6.8 0 0 Z " fill="#EDEDED" transform="translate(200,220)"/>
<path d="M0 0 C6.6 0 13.2 0 20 0 C20 6.6 20 13.2 20 20 C13.4 20 6.8 20 0 20 C0 13.4 0 6.8 0 0 Z " fill="#FEFEFE" transform="translate(180,220)"/>
<path d="M0 0 C6.6 0 13.2 0 20 0 C20 6.6 20 13.2 20 20 C13.4 20 6.8 20 0 20 C0 13.4 0 6.8 0 0 Z " fill="#EDEDED" transform="translate(160,220)"/>
<path d="M0 0 C6.6 0 13.2 0 20 0 C20 6.6 20 13.2 20 20 C13.4 20 6.8 20 0 20 C0 13.4 0 6.8 0 0 Z " fill="#FEFEFE" transform="translate(140,220)"/>
<path d="M0 0 C6.6 0 13.2 0 20 0 C20 6.6 20 13.2 20 20 C13.4 20 6.8 20 0 20 C0 13.4 0 6.8 0 0 Z " fill="#EDEDED" transform="translate(120,220)"/>
<path d="M0 0 C6.6 0 13.2 0 20 0 C20 6.6 20 13.2 20 20 C13.4 20 6.8 20 0 20 C0 13.4 0 6.8 0 0 Z " fill="#FEFEFE" transform="translate(100,220)"/>
<path d="M0 0 C6.6 0 13.2 0 20 0 C20 6.6 20 13.2 20 20 C13.4 20 6.8 20 0 20 C0 13.4 0 6.8 0 0 Z " fill="#EDEDED" transform="translate(80,220)"/>
<path d="M0 0 C6.6 0 13.2 0 20 0 C20 6.6 20 13.2 20 20 C13.4 20 6.8 20 0 20 C0 13.4 0 6.8 0 0 Z " fill="#FEFEFE" transform="translate(60,220)"/>
<path d="M0 0 C6.6 0 13.2 0 20 0 C20 6.6 20 13.2 20 20 C13.4 20 6.8 20 0 20 C0 13.4 0 6.8 0 0 Z " fill="#EDEDED" transform="translate(40,220)"/>
<path d="M0 0 C6.6 0 13.2 0 20 0 C20 6.6 20 13.2 20 20 C13.4 20 6.8 20 0 20 C0 13.4 0 6.8 0 0 Z " fill="#FEFEFE" transform="translate(20,220)"/>
<path d="M0 0 C6.6 0 13.2 0 20 0 C20 6.6 20 13.2 20 20 C13.4 20 6.8 20 0 20 C0 13.4 0 6.8 0 0 Z " fill="#EDEDED" transform="translate(0,220)"/>
<path d="M0 0 C6.6 0 13.2 0 20 0 C20 6.6 20 13.2 20 20 C13.4 20 6.8 20 0 20 C0 13.4 0 6.8 0 0 Z " fill="#EDEDED" transform="translate(260,200)"/>
<path d="M0 0 C6.6 0 13.2 0 20 0 C20 6.6 20 13.2 20 20 C13.4 20 6.8 20 0 20 C0 13.4 0 6.8 0 0 Z " fill="#FEFEFE" transform="translate(240,200)"/>
<path d="M0 0 C6.6 0 13.2 0 20 0 C20 6.6 20 13.2 20 20 C13.4 20 6.8 20 0 20 C0 13.4 0 6.8 0 0 Z " fill="#EDEDED" transform="translate(220,200)"/>
<path d="M0 0 C6.6 0 13.2 0 20 0 C20 6.6 20 13.2 20 20 C13.4 20 6.8 20 0 20 C0 13.4 0 6.8 0 0 Z " fill="#FEFEFE" transform="translate(200,200)"/>
<path d="M0 0 C6.6 0 13.2 0 20 0 C20 6.6 20 13.2 20 20 C13.4 20 6.8 20 0 20 C0 13.4 0 6.8 0 0 Z " fill="#EDEDED" transform="translate(180,200)"/>
<path d="M0 0 C6.6 0 13.2 0 20 0 C20 6.6 20 13.2 20 20 C13.4 20 6.8 20 0 20 C0 13.4 0 6.8 0 0 Z " fill="#FEFEFE" transform="translate(160,200)"/>
<path d="M0 0 C6.6 0 13.2 0 20 0 C20 6.6 20 13.2 20 20 C13.4 20 6.8 20 0 20 C0 13.4 0 6.8 0 0 Z " fill="#EDEDED" transform="translate(140,200)"/>
<path d="M0 0 C6.6 0 13.2 0 20 0 C20 6.6 20 13.2 20 20 C13.4 20 6.8 20 0 20 C0 13.4 0 6.8 0 0 Z " fill="#FEFEFE" transform="translate(120,200)"/>
<path d="M0 0 C6.6 0 13.2 0 20 0 C20 6.6 20 13.2 20 20 C13.4 20 6.8 20 0 20 C0 13.4 0 6.8 0 0 Z " fill="#EDEDED" transform="translate(100,200)"/>
<path d="M0 0 C6.6 0 13.2 0 20 0 C20 6.6 20 13.2 20 20 C13.4 20 6.8 20 0 20 C0 13.4 0 6.8 0 0 Z " fill="#FEFEFE" transform="translate(80,200)"/>
<path d="M0 0 C6.6 0 13.2 0 20 0 C20 6.6 20 13.2 20 20 C13.4 20 6.8 20 0 20 C0 13.4 0 6.8 0 0 Z " fill="#EDEDED" transform="translate(60,200)"/>
<path d="M0 0 C6.6 0 13.2 0 20 0 C20 6.6 20 13.2 20 20 C13.4 20 6.8 20 0 20 C0 13.4 0 6.8 0 0 Z " fill="#FEFEFE" transform="translate(40,200)"/>
<path d="M0 0 C6.6 0 13.2 0 20 0 C20 6.6 20 13.2 20 20 C13.4 20 6.8 20 0 20 C0 13.4 0 6.8 0 0 Z " fill="#EDEDED" transform="translate(20,200)"/>
<path d="M0 0 C6.6 0 13.2 0 20 0 C20 6.6 20 13.2 20 20 C13.4 20 6.8 20 0 20 C0 13.4 0 6.8 0 0 Z " fill="#FEFEFE" transform="translate(0,200)"/>
<path d="M0 0 C6.6 0 13.2 0 20 0 C20 6.6 20 13.2 20 20 C13.4 20 6.8 20 0 20 C0 13.4 0 6.8 0 0 Z " fill="#FEFEFE" transform="translate(260,180)"/>
<path d="M0 0 C6.6 0 13.2 0 20 0 C20 6.6 20 13.2 20 20 C13.4 20 6.8 20 0 20 C0 13.4 0 6.8 0 0 Z " fill="#EDEDED" transform="translate(240,180)"/>
<path d="M0 0 C6.6 0 13.2 0 20 0 C20 6.6 20 13.2 20 20 C13.4 20 6.8 20 0 20 C0 13.4 0 6.8 0 0 Z " fill="#FEFEFE" transform="translate(220,180)"/>
<path d="M0 0 C6.6 0 13.2 0 20 0 C20 6.6 20 13.2 20 20 C13.4 20 6.8 20 0 20 C0 13.4 0 6.8 0 0 Z " fill="#EDEDED" transform="translate(200,180)"/>
<path d="M0 0 C6.6 0 13.2 0 20 0 C20 6.6 20 13.2 20 20 C13.4 20 6.8 20 0 20 C0 13.4 0 6.8 0 0 Z " fill="#FEFEFE" transform="translate(180,180)"/>
<path d="M0 0 C6.6 0 13.2 0 20 0 C20 6.6 20 13.2 20 20 C13.4 20 6.8 20 0 20 C0 13.4 0 6.8 0 0 Z " fill="#EDEDED" transform="translate(160,180)"/>
<path d="M0 0 C6.6 0 13.2 0 20 0 C20 6.6 20 13.2 20 20 C13.4 20 6.8 20 0 20 C0 13.4 0 6.8 0 0 Z " fill="#FEFEFE" transform="translate(140,180)"/>
<path d="M0 0 C6.6 0 13.2 0 20 0 C20 6.6 20 13.2 20 20 C13.4 20 6.8 20 0 20 C0 13.4 0 6.8 0 0 Z " fill="#EDEDED" transform="translate(120,180)"/>
<path d="M0 0 C6.6 0 13.2 0 20 0 C20 6.6 20 13.2 20 20 C13.4 20 6.8 20 0 20 C0 13.4 0 6.8 0 0 Z " fill="#FEFEFE" transform="translate(100,180)"/>
<path d="M0 0 C6.6 0 13.2 0 20 0 C20 6.6 20 13.2 20 20 C13.4 20 6.8 20 0 20 C0 13.4 0 6.8 0 0 Z " fill="#EDEDED" transform="translate(80,180)"/>
<path d="M0 0 C6.6 0 13.2 0 20 0 C20 6.6 20 13.2 20 20 C13.4 20 6.8 20 0 20 C0 13.4 0 6.8 0 0 Z " fill="#FEFEFE" transform="translate(60,180)"/>
<path d="M0 0 C6.6 0 13.2 0 20 0 C20 6.6 20 13.2 20 20 C13.4 20 6.8 20 0 20 C0 13.4 0 6.8 0 0 Z " fill="#EDEDED" transform="translate(40,180)"/>
<path d="M0 0 C6.6 0 13.2 0 20 0 C20 6.6 20 13.2 20 20 C13.4 20 6.8 20 0 20 C0 13.4 0 6.8 0 0 Z " fill="#FEFEFE" transform="translate(20,180)"/>
<path d="M0 0 C6.6 0 13.2 0 20 0 C20 6.6 20 13.2 20 20 C13.4 20 6.8 20 0 20 C0 13.4 0 6.8 0 0 Z " fill="#FDFEFD" transform="translate(200,160)"/>
<path d="M0 0 C6.6 0 13.2 0 20 0 C20 6.6 20 13.2 20 20 C13.4 20 6.8 20 0 20 C0 13.4 0 6.8 0 0 Z " fill="#FDFEFD" transform="translate(240,160)"/>
<path d="M0 0 C6.6 0 13.2 0 20 0 C20 6.6 20 13.2 20 20 C13.4 20 6.8 20 0 20 C0 13.4 0 6.8 0 0 Z " fill="#FDFEFD" transform="translate(160,160)"/>
<path d="M0 0 C6.6 0 13.2 0 20 0 C20 6.6 20 13.2 20 20 C13.4 20 6.8 20 0 20 C0 13.4 0 6.8 0 0 Z " fill="#FDFEFE" transform="translate(120,160)"/>
<path d="M0 0 C6.6 0 13.2 0 20 0 C20 6.6 20 13.2 20 20 C13.4 20 6.8 20 0 20 C0 13.4 0 6.8 0 0 Z " fill="#FDFEFE" transform="translate(80,160)"/>
<path d="M0 0 C6.6 0 13.2 0 20 0 C20 6.6 20 13.2 20 20 C13.4 20 6.8 20 0 20 C0 13.4 0 6.8 0 0 Z " fill="#FDFEFE" transform="translate(40,160)"/>
<path d="M0 0 C6.6 0 13.2 0 20 0 C20 6.6 20 13.2 20 20 C13.4 20 6.8 20 0 20 C0 13.4 0 6.8 0 0 Z " fill="#FDFEFE" transform="translate(0,160)"/>
<path d="M0 0 C6.6 0 13.2 0 20 0 C20 6.6 20 13.2 20 20 C13.4 20 6.8 20 0 20 C0 13.4 0 6.8 0 0 Z " fill="#EDEDED" transform="translate(260,80)"/>
<path d="M0 0 C6.6 0 13.2 0 20 0 C20 6.6 20 13.2 20 20 C13.4 20 6.8 20 0 20 C0 13.4 0 6.8 0 0 Z " fill="#FEFEFE" transform="translate(240,80)"/>
<path d="M0 0 C6.6 0 13.2 0 20 0 C20 6.6 20 13.2 20 20 C13.4 20 6.8 20 0 20 C0 13.4 0 6.8 0 0 Z " fill="#EDEDED" transform="translate(220,80)"/>
<path d="M0 0 C6.6 0 13.2 0 20 0 C20 6.6 20 13.2 20 20 C13.4 20 6.8 20 0 20 C0 13.4 0 6.8 0 0 Z " fill="#FEFEFE" transform="translate(200,80)"/>
<path d="M0 0 C6.6 0 13.2 0 20 0 C20 6.6 20 13.2 20 20 C13.4 20 6.8 20 0 20 C0 13.4 0 6.8 0 0 Z " fill="#EDEDED" transform="translate(180,80)"/>
<path d="M0 0 C6.6 0 13.2 0 20 0 C20 6.6 20 13.2 20 20 C13.4 20 6.8 20 0 20 C0 13.4 0 6.8 0 0 Z " fill="#FEFEFE" transform="translate(160,80)"/>
<path d="M0 0 C6.6 0 13.2 0 20 0 C20 6.6 20 13.2 20 20 C13.4 20 6.8 20 0 20 C0 13.4 0 6.8 0 0 Z " fill="#EDEDED" transform="translate(140,80)"/>
<path d="M0 0 C6.6 0 13.2 0 20 0 C20 6.6 20 13.2 20 20 C13.4 20 6.8 20 0 20 C0 13.4 0 6.8 0 0 Z " fill="#FEFEFE" transform="translate(120,80)"/>
<path d="M0 0 C6.6 0 13.2 0 20 0 C20 6.6 20 13.2 20 20 C13.4 20 6.8 20 0 20 C0 13.4 0 6.8 0 0 Z " fill="#FEFEFE" transform="translate(80,80)"/>
<path d="M0 0 C6.6 0 13.2 0 20 0 C20 6.6 20 13.2 20 20 C13.4 20 6.8 20 0 20 C0 13.4 0 6.8 0 0 Z " fill="#EDEDED" transform="translate(60,80)"/>
<path d="M0 0 C6.6 0 13.2 0 20 0 C20 6.6 20 13.2 20 20 C13.4 20 6.8 20 0 20 C0 13.4 0 6.8 0 0 Z " fill="#FEFEFE" transform="translate(40,80)"/>
<path d="M0 0 C6.6 0 13.2 0 20 0 C20 6.6 20 13.2 20 20 C13.4 20 6.8 20 0 20 C0 13.4 0 6.8 0 0 Z " fill="#EDEDED" transform="translate(20,80)"/>
<path d="M0 0 C6.6 0 13.2 0 20 0 C20 6.6 20 13.2 20 20 C13.4 20 6.8 20 0 20 C0 13.4 0 6.8 0 0 Z " fill="#FEFEFE" transform="translate(0,80)"/>
<path d="M0 0 C6.6 0 13.2 0 20 0 C20 6.6 20 13.2 20 20 C13.4 20 6.8 20 0 20 C0 13.4 0 6.8 0 0 Z " fill="#FEFEFE" transform="translate(260,60)"/>
<path d="M0 0 C6.6 0 13.2 0 20 0 C20 6.6 20 13.2 20 20 C13.4 20 6.8 20 0 20 C0 13.4 0 6.8 0 0 Z " fill="#EDEDED" transform="translate(240,60)"/>
<path d="M0 0 C6.6 0 13.2 0 20 0 C20 6.6 20 13.2 20 20 C13.4 20 6.8 20 0 20 C0 13.4 0 6.8 0 0 Z " fill="#FEFEFE" transform="translate(220,60)"/>
<path d="M0 0 C6.6 0 13.2 0 20 0 C20 6.6 20 13.2 20 20 C13.4 20 6.8 20 0 20 C0 13.4 0 6.8 0 0 Z " fill="#EDEDED" transform="translate(200,60)"/>
<path d="M0 0 C6.6 0 13.2 0 20 0 C20 6.6 20 13.2 20 20 C13.4 20 6.8 20 0 20 C0 13.4 0 6.8 0 0 Z " fill="#FEFEFE" transform="translate(180,60)"/>
<path d="M0 0 C6.6 0 13.2 0 20 0 C20 6.6 20 13.2 20 20 C13.4 20 6.8 20 0 20 C0 13.4 0 6.8 0 0 Z " fill="#EDEDED" transform="translate(160,60)"/>
<path d="M0 0 C6.6 0 13.2 0 20 0 C20 6.6 20 13.2 20 20 C13.4 20 6.8 20 0 20 C0 13.4 0 6.8 0 0 Z " fill="#FEFEFE" transform="translate(140,60)"/>
<path d="M0 0 C6.6 0 13.2 0 20 0 C20 6.6 20 13.2 20 20 C13.4 20 6.8 20 0 20 C0 13.4 0 6.8 0 0 Z " fill="#EDEDED" transform="translate(120,60)"/>
<path d="M0 0 C6.6 0 13.2 0 20 0 C20 6.6 20 13.2 20 20 C13.4 20 6.8 20 0 20 C0 13.4 0 6.8 0 0 Z " fill="#FEFEFE" transform="translate(100,60)"/>
<path d="M0 0 C6.6 0 13.2 0 20 0 C20 6.6 20 13.2 20 20 C13.4 20 6.8 20 0 20 C0 13.4 0 6.8 0 0 Z " fill="#EDEDED" transform="translate(80,60)"/>
<path d="M0 0 C6.6 0 13.2 0 20 0 C20 6.6 20 13.2 20 20 C13.4 20 6.8 20 0 20 C0 13.4 0 6.8 0 0 Z " fill="#FEFEFE" transform="translate(60,60)"/>
<path d="M0 0 C6.6 0 13.2 0 20 0 C20 6.6 20 13.2 20 20 C13.4 20 6.8 20 0 20 C0 13.4 0 6.8 0 0 Z " fill="#EDEDED" transform="translate(40,60)"/>
<path d="M0 0 C6.6 0 13.2 0 20 0 C20 6.6 20 13.2 20 20 C13.4 20 6.8 20 0 20 C0 13.4 0 6.8 0 0 Z " fill="#FEFEFE" transform="translate(20,60)"/>
<path d="M0 0 C6.6 0 13.2 0 20 0 C20 6.6 20 13.2 20 20 C13.4 20 6.8 20 0 20 C0 13.4 0 6.8 0 0 Z " fill="#EDEDED" transform="translate(0,60)"/>
<path d="M0 0 C6.6 0 13.2 0 20 0 C20 6.6 20 13.2 20 20 C13.4 20 6.8 20 0 20 C0 13.4 0 6.8 0 0 Z " fill="#EDEDED" transform="translate(260,40)"/>
<path d="M0 0 C6.6 0 13.2 0 20 0 C20 6.6 20 13.2 20 20 C13.4 20 6.8 20 0 20 C0 13.4 0 6.8 0 0 Z " fill="#FEFEFE" transform="translate(240,40)"/>
<path d="M0 0 C6.6 0 13.2 0 20 0 C20 6.6 20 13.2 20 20 C13.4 20 6.8 20 0 20 C0 13.4 0 6.8 0 0 Z " fill="#EDEDED" transform="translate(220,40)"/>
<path d="M0 0 C6.6 0 13.2 0 20 0 C20 6.6 20 13.2 20 20 C13.4 20 6.8 20 0 20 C0 13.4 0 6.8 0 0 Z " fill="#FEFEFE" transform="translate(200,40)"/>
<path d="M0 0 C6.6 0 13.2 0 20 0 C20 6.6 20 13.2 20 20 C13.4 20 6.8 20 0 20 C0 13.4 0 6.8 0 0 Z " fill="#EDEDED" transform="translate(180,40)"/>
<path d="M0 0 C6.6 0 13.2 0 20 0 C20 6.6 20 13.2 20 20 C13.4 20 6.8 20 0 20 C0 13.4 0 6.8 0 0 Z " fill="#FEFEFE" transform="translate(160,40)"/>
<path d="M0 0 C6.6 0 13.2 0 20 0 C20 6.6 20 13.2 20 20 C13.4 20 6.8 20 0 20 C0 13.4 0 6.8 0 0 Z " fill="#EDEDED" transform="translate(140,40)"/>
<path d="M0 0 C6.6 0 13.2 0 20 0 C20 6.6 20 13.2 20 20 C13.4 20 6.8 20 0 20 C0 13.4 0 6.8 0 0 Z " fill="#FEFEFE" transform="translate(120,40)"/>
<path d="M0 0 C6.6 0 13.2 0 20 0 C20 6.6 20 13.2 20 20 C13.4 20 6.8 20 0 20 C0 13.4 0 6.8 0 0 Z " fill="#EDEDED" transform="translate(100,40)"/>
<path d="M0 0 C6.6 0 13.2 0 20 0 C20 6.6 20 13.2 20 20 C13.4 20 6.8 20 0 20 C0 13.4 0 6.8 0 0 Z " fill="#FEFEFE" transform="translate(80,40)"/>
<path d="M0 0 C6.6 0 13.2 0 20 0 C20 6.6 20 13.2 20 20 C13.4 20 6.8 20 0 20 C0 13.4 0 6.8 0 0 Z " fill="#EDEDED" transform="translate(60,40)"/>
<path d="M0 0 C6.6 0 13.2 0 20 0 C20 6.6 20 13.2 20 20 C13.4 20 6.8 20 0 20 C0 13.4 0 6.8 0 0 Z " fill="#FEFEFE" transform="translate(40,40)"/>
<path d="M0 0 C6.6 0 13.2 0 20 0 C20 6.6 20 13.2 20 20 C13.4 20 6.8 20 0 20 C0 13.4 0 6.8 0 0 Z " fill="#EDEDED" transform="translate(20,40)"/>
<path d="M0 0 C6.6 0 13.2 0 20 0 C20 6.6 20 13.2 20 20 C13.4 20 6.8 20 0 20 C0 13.4 0 6.8 0 0 Z " fill="#FEFEFE" transform="translate(0,40)"/>
<path d="M0 0 C6.6 0 13.2 0 20 0 C20 6.6 20 13.2 20 20 C13.4 20 6.8 20 0 20 C0 13.4 0 6.8 0 0 Z " fill="#FEFEFE" transform="translate(260,20)"/>
<path d="M0 0 C6.6 0 13.2 0 20 0 C20 6.6 20 13.2 20 20 C13.4 20 6.8 20 0 20 C0 13.4 0 6.8 0 0 Z " fill="#EDEDED" transform="translate(240,20)"/>
<path d="M0 0 C6.6 0 13.2 0 20 0 C20 6.6 20 13.2 20 20 C13.4 20 6.8 20 0 20 C0 13.4 0 6.8 0 0 Z " fill="#FEFEFE" transform="translate(220,20)"/>
<path d="M0 0 C6.6 0 13.2 0 20 0 C20 6.6 20 13.2 20 20 C13.4 20 6.8 20 0 20 C0 13.4 0 6.8 0 0 Z " fill="#EDEDED" transform="translate(200,20)"/>
<path d="M0 0 C6.6 0 13.2 0 20 0 C20 6.6 20 13.2 20 20 C13.4 20 6.8 20 0 20 C0 13.4 0 6.8 0 0 Z " fill="#FEFEFE" transform="translate(180,20)"/>
<path d="M0 0 C6.6 0 13.2 0 20 0 C20 6.6 20 13.2 20 20 C13.4 20 6.8 20 0 20 C0 13.4 0 6.8 0 0 Z " fill="#EDEDED" transform="translate(160,20)"/>
<path d="M0 0 C6.6 0 13.2 0 20 0 C20 6.6 20 13.2 20 20 C13.4 20 6.8 20 0 20 C0 13.4 0 6.8 0 0 Z " fill="#FEFEFE" transform="translate(140,20)"/>
<path d="M0 0 C6.6 0 13.2 0 20 0 C20 6.6 20 13.2 20 20 C13.4 20 6.8 20 0 20 C0 13.4 0 6.8 0 0 Z " fill="#EDEDED" transform="translate(120,20)"/>
<path d="M0 0 C6.6 0 13.2 0 20 0 C20 6.6 20 13.2 20 20 C13.4 20 6.8 20 0 20 C0 13.4 0 6.8 0 0 Z " fill="#FEFEFE" transform="translate(100,20)"/>
<path d="M0 0 C6.6 0 13.2 0 20 0 C20 6.6 20 13.2 20 20 C13.4 20 6.8 20 0 20 C0 13.4 0 6.8 0 0 Z " fill="#EDEDED" transform="translate(80,20)"/>
<path d="M0 0 C6.6 0 13.2 0 20 0 C20 6.6 20 13.2 20 20 C13.4 20 6.8 20 0 20 C0 13.4 0 6.8 0 0 Z " fill="#FEFEFE" transform="translate(60,20)"/>
<path d="M0 0 C6.6 0 13.2 0 20 0 C20 6.6 20 13.2 20 20 C13.4 20 6.8 20 0 20 C0 13.4 0 6.8 0 0 Z " fill="#EDEDED" transform="translate(40,20)"/>
<path d="M0 0 C6.6 0 13.2 0 20 0 C20 6.6 20 13.2 20 20 C13.4 20 6.8 20 0 20 C0 13.4 0 6.8 0 0 Z " fill="#FEFEFE" transform="translate(20,20)"/>
<path d="M0 0 C6.6 0 13.2 0 20 0 C20 6.6 20 13.2 20 20 C13.4 20 6.8 20 0 20 C0 13.4 0 6.8 0 0 Z " fill="#EDEDED" transform="translate(0,20)"/>
<path d="M0 0 C6.6 0 13.2 0 20 0 C20 6.6 20 13.2 20 20 C13.4 20 6.8 20 0 20 C0 13.4 0 6.8 0 0 Z " fill="#EDEDED" transform="translate(260,0)"/>
<path d="M0 0 C6.6 0 13.2 0 20 0 C20 6.6 20 13.2 20 20 C13.4 20 6.8 20 0 20 C0 13.4 0 6.8 0 0 Z " fill="#FEFEFE" transform="translate(240,0)"/>
<path d="M0 0 C6.6 0 13.2 0 20 0 C20 6.6 20 13.2 20 20 C13.4 20 6.8 20 0 20 C0 13.4 0 6.8 0 0 Z " fill="#EDEDED" transform="translate(220,0)"/>
<path d="M0 0 C6.6 0 13.2 0 20 0 C20 6.6 20 13.2 20 20 C13.4 20 6.8 20 0 20 C0 13.4 0 6.8 0 0 Z " fill="#FEFEFE" transform="translate(200,0)"/>
<path d="M0 0 C6.6 0 13.2 0 20 0 C20 6.6 20 13.2 20 20 C13.4 20 6.8 20 0 20 C0 13.4 0 6.8 0 0 Z " fill="#EDEDED" transform="translate(180,0)"/>
<path d="M0 0 C6.6 0 13.2 0 20 0 C20 6.6 20 13.2 20 20 C13.4 20 6.8 20 0 20 C0 13.4 0 6.8 0 0 Z " fill="#FEFEFE" transform="translate(160,0)"/>
<path d="M0 0 C6.6 0 13.2 0 20 0 C20 6.6 20 13.2 20 20 C13.4 20 6.8 20 0 20 C0 13.4 0 6.8 0 0 Z " fill="#EDEDED" transform="translate(140,0)"/>
<path d="M0 0 C6.6 0 13.2 0 20 0 C20 6.6 20 13.2 20 20 C13.4 20 6.8 20 0 20 C0 13.4 0 6.8 0 0 Z " fill="#FEFEFE" transform="translate(120,0)"/>
<path d="M0 0 C6.6 0 13.2 0 20 0 C20 6.6 20 13.2 20 20 C13.4 20 6.8 20 0 20 C0 13.4 0 6.8 0 0 Z " fill="#EDEDED" transform="translate(100,0)"/>
<path d="M0 0 C6.6 0 13.2 0 20 0 C20 6.6 20 13.2 20 20 C13.4 20 6.8 20 0 20 C0 13.4 0 6.8 0 0 Z " fill="#FEFEFE" transform="translate(80,0)"/>
<path d="M0 0 C6.6 0 13.2 0 20 0 C20 6.6 20 13.2 20 20 C13.4 20 6.8 20 0 20 C0 13.4 0 6.8 0 0 Z " fill="#EDEDED" transform="translate(60,0)"/>
<path d="M0 0 C6.6 0 13.2 0 20 0 C20 6.6 20 13.2 20 20 C13.4 20 6.8 20 0 20 C0 13.4 0 6.8 0 0 Z " fill="#FEFEFE" transform="translate(40,0)"/>
<path d="M0 0 C6.6 0 13.2 0 20 0 C20 6.6 20 13.2 20 20 C13.4 20 6.8 20 0 20 C0 13.4 0 6.8 0 0 Z " fill="#FEFEFE" transform="translate(0,0)"/>
<path d="M0 0 C0.33 1.32 0.66 2.64 1 4 C5.62 4 10.24 4 15 4 C15 10.6 15 17.2 15 24 C2.27522671 24.08961108 -10.30608111 23.85852592 -23 23 C-23 22.67 -23 22.34 -23 22 C-15.74 22 -8.48 22 -1 22 C-0.67 19.36 -0.34 16.72 0 14 C0.33 13.34 0.66 12.68 1 12 C-3.29 12 -7.58 12 -12 12 C-12 10.35 -12 8.7 -12 7 C-8.37 7 -4.74 7 -1 7 C-0.67 4.69 -0.34 2.38 0 0 Z " fill="#E0E6EB" transform="translate(125,136)"/>
<path d="M0 0 C3.0009375 -0.0309375 3.0009375 -0.0309375 6.0625 -0.0625 C7.18785156 -0.07410156 8.31320313 -0.08570313 9.47265625 -0.09765625 C13 0 13 0 20 1 C20 7.27 20 13.54 20 20 C13.4 20 6.8 20 0 20 C0 13.4 0 6.8 0 0 Z " fill="#EDEDED" transform="translate(60,160)"/>
<path d="M0 0 C6.6 0 13.2 0 20 0 C20 6.6 20 13.2 20 20 C13.07760427 20.07866359 6.92021496 19.86502687 0 19 C0 12.73 0 6.46 0 0 Z " fill="#FDFEFE" transform="translate(20,100)"/>
<path d="M0 0 C6.6 0 13.2 0 20 0 C20 6.6 20 13.2 20 20 C13.4 20 6.8 20 0 20 C0 13.4 0 6.8 0 0 Z " fill="#FDFEFE" transform="translate(60,100)"/>
<path d="M0 0 C6.6 0 13.2 0 20 0 C20 6.27 20 12.54 20 19 C13.4 19.33 6.8 19.66 0 20 C0 13.4 0 6.8 0 0 Z " fill="#FDFEFD" transform="translate(140,100)"/>
<path d="M0 0 C6.6 0 13.2 0 20 0 C20 6.6 20 13.2 20 20 C13.4 19.67 6.8 19.34 0 19 C0 12.73 0 6.46 0 0 Z " fill="#FDFEFD" transform="translate(260,100)"/>
<path d="M0 0 C6.6 0 13.2 0 20 0 C20 6.27 20 12.54 20 19 C13.4 19.33 6.8 19.66 0 20 C0 13.4 0 6.8 0 0 Z " fill="#FEFDFD" transform="translate(180,100)"/>
<path d="M0 0 C6.6 0 13.2 0 20 0 C20 6.27 20 12.54 20 19 C13.4 19.33 6.8 19.66 0 20 C0 13.4 0 6.8 0 0 Z " fill="#FDFEFE" transform="translate(100,100)"/>
<path d="M0 0 C4.29 0 8.58 0 13 0 C13 6.6 13 13.2 13 20 C8.38 20 3.76 20 -1 20 C-1 18.35 -1 16.7 -1 15 C-5.29 15 -9.58 15 -14 15 C-14 13.35 -14 11.7 -14 10 C-10.04 10 -6.08 10 -2 10 C-1.855625 8.72125 -1.71125 7.4425 -1.5625 6.125 C-1.29357254 3.74307106 -1.07773654 2.15547309 0 0 Z " fill="#FBFDFD" transform="translate(127,120)"/>
<path d="M0 0 C3.63 0 7.26 0 11 0 C10 7.42857143 10 7.42857143 9 11 C9.99 11.33 10.98 11.66 12 12 C12 21.24 12 30.48 12 40 C10.68 40 9.36 40 8 40 C7.75765625 39.01902344 7.5153125 38.03804687 7.265625 37.02734375 C6.92714215 35.66404789 6.58859552 34.30076788 6.25 32.9375 C6.07243164 32.21812256 5.89486328 31.49874512 5.71191406 30.75756836 C4.80877907 27.12637841 3.87592745 23.51088496 2.84375 19.9140625 C0.90199117 13.10939012 -0.49872029 7.10676415 0 0 Z " fill="#F9FDFA" transform="translate(205,120)"/>
<path d="M0 0 C2.97 0.495 2.97 0.495 6 1 C5.34 4.63 4.68 8.26 4 12 C4.99 12 5.98 12 7 12 C7.0578304 16.45827926 7.09353855 20.9164628 7.125 25.375 C7.14175781 26.64601562 7.15851563 27.91703125 7.17578125 29.2265625 C7.18222656 30.43828125 7.18867187 31.65 7.1953125 32.8984375 C7.20578613 34.01911621 7.21625977 35.13979492 7.22705078 36.29443359 C7 39 7 39 5 41 C2.47802734 41.22705078 2.47802734 41.22705078 -0.6640625 41.1953125 C-1.78554687 41.18886719 -2.90703125 41.18242187 -4.0625 41.17578125 C-5.238125 41.15902344 -6.41375 41.14226562 -7.625 41.125 C-9.40003906 41.11146484 -9.40003906 41.11146484 -11.2109375 41.09765625 C-14.14082523 41.07402812 -17.0703134 41.04108514 -20 41 C-20 40.67 -20 40.34 -20 40 C-19.34773438 39.97421875 -18.69546875 39.9484375 -18.0234375 39.921875 C-12.30753939 39.55093176 -8.40935671 38.97917557 -4 35 C-1.34467308 30.57803857 -0.60174128 27.19870595 -0.48828125 22.0703125 C-0.45283203 20.78125 -0.41738281 19.4921875 -0.38085938 18.1640625 C-0.35776507 16.81771358 -0.33498245 15.47135928 -0.3125 14.125 C-0.27929117 12.75517629 -0.24479825 11.38538308 -0.20898438 10.015625 C-0.12669841 6.6771659 -0.05748072 3.33896315 0 0 Z " fill="#E1E9EF" transform="translate(95,119)"/>
<path d="M0 0 C0.33 0 0.66 0 1 0 C1 3.3 1 6.6 1 10 C3.64 10 6.28 10 9 10 C9 16.6 9 23.2 9 30 C1.74 30 -5.52 30 -13 30 C-13 29.67 -13 29.34 -13 29 C-8.71 29 -4.42 29 0 29 C-0.845625 27.453125 -1.69125 25.90625 -2.5625 24.3125 C-4.19286846 21.33011866 -5.06794239 19.72018936 -4.74609375 16.30859375 C-4 14 -4 14 -2.5 11.75 C-0.42441744 7.94476531 -0.27006269 4.27444057 0 0 Z " fill="#E0EBE2" transform="translate(247,130)"/>
<path d="M0 0 C2.97 0 5.94 0 9 0 C9.08690253 4.43737712 9.14035926 8.87453634 9.1875 13.3125 C9.21263672 14.57513672 9.23777344 15.83777344 9.26367188 17.13867188 C9.27817383 18.95141602 9.27817383 18.95141602 9.29296875 20.80078125 C9.31653442 22.47394409 9.31653442 22.47394409 9.34057617 24.1809082 C9 27 9 27 7.6105957 28.89916992 C6 30 6 30 3.9375 29.8125 C2 29 2 29 0 27 C-0.22705078 24.29443359 -0.22705078 24.29443359 -0.1953125 20.8984375 C-0.18886719 19.68671875 -0.18242188 18.475 -0.17578125 17.2265625 C-0.15902344 15.95554688 -0.14226562 14.68453125 -0.125 13.375 C-0.11146484 11.456875 -0.11146484 11.456875 -0.09765625 9.5 C-0.07402303 6.33314833 -0.04107629 3.16666576 0 0 Z " fill="#DEEEF8" transform="translate(75,119)"/>
<path d="M0 0 C3.63 0 7.26 0 11 0 C11 6.6 11 13.2 11 20 C7.37 20 3.74 20 0 20 C0 13.4 0 6.8 0 0 Z " fill="#FEFEFE" transform="translate(269,140)"/>
<path d="M0 0 C3.96 0 7.92 0 12 0 C12 0.33 12 0.66 12 1 C8.37 1 4.74 1 1 1 C0.814375 2.794375 0.62875 4.58875 0.4375 6.4375 C0.33308594 7.44683594 0.22867188 8.45617187 0.12109375 9.49609375 C0.08113281 10.32238281 0.04117188 11.14867187 0 12 C0.33 12.33 0.66 12.66 1 13 C1.08767112 15.07262076 1.10695873 17.14820294 1.09765625 19.22265625 C1.09443359 20.48271484 1.09121094 21.74277344 1.08789062 23.04101562 C1.07953403 24.38151109 1.07106907 25.72200588 1.0625 27.0625 C1.0574866 28.40689942 1.05292342 29.7513006 1.04882812 31.09570312 C1.03699497 34.39715433 1.01905886 37.6985826 1 41 C6.61 41 12.22 41 18 41 C18 41.33 18 41.66 18 42 C12.06 42 6.12 42 0 42 C0 35.4 0 28.8 0 22 C-2.31 22.33 -4.62 22.66 -7 23 C-7.99 22.34 -8.98 21.68 -10 21 C-8.79618552 18.50638429 -7.54571278 16.31856917 -6 14 C-5.29842592 8.73819436 -6.84078305 6.14647225 -10 2 C-6.7 2 -3.4 2 0 2 C0 1.34 0 0.68 0 0 Z " fill="#DBEBF5" transform="translate(40,118)"/>
<path d="M0 0 C4.95 0 9.9 0 15 0 C15 3.63 15 7.26 15 11 C15.66 11 16.32 11 17 11 C16.67 13.64 16.34 16.28 16 19 C14.68 19.33 13.36 19.66 12 20 C11.76925781 19.26394531 11.53851563 18.52789062 11.30078125 17.76953125 C9.36321466 11.9721482 7.77512837 8.04049324 3 4 C2.01 2.68 1.02 1.36 0 0 Z " fill="#F5FCF6" transform="translate(165,120)"/>
<path d="M0 0 C5.28 0 10.56 0 16 0 C15.125 7.625 15.125 7.625 14 11 C15.98 11 17.96 11 20 11 C20 13.97 20 16.94 20 20 C17.36 20 14.72 20 12 20 C11.96132812 19.02160156 11.96132812 19.02160156 11.921875 18.0234375 C11.55209936 12.32553098 11.03071841 8.34893302 7 4 C4.69072958 2.69669931 2.52516675 1.87409618 0 1 C0 0.67 0 0.34 0 0 Z " fill="#EDFBF1" transform="translate(236,120)"/>
<path d="M0 0 C0.33 0.99 0.66 1.98 1 3 C1.99 3 2.98 3 4 3 C2.68 8.94 1.36 14.88 0 21 C3.63 21.33 7.26 21.66 11 22 C11.495 20.515 11.495 20.515 12 19 C11.505 21.475 11.505 21.475 11 24 C-2.86 23.67 -16.72 23.34 -31 23 C-31 22.67 -31 22.34 -31 22 C-29.69804687 21.97421875 -28.39609375 21.9484375 -27.0546875 21.921875 C-25.32809244 21.86557299 -23.60153124 21.80822613 -21.875 21.75 C-21.0190625 21.73582031 -20.163125 21.72164062 -19.28125 21.70703125 C-13.72724543 21.49341569 -10.40604916 20.68989566 -6 17 C-1.55374093 11.93620495 -0.87521004 6.47194796 0 0 Z " fill="#D3EDD8" transform="translate(176,137)"/>
<path d="M0 0 C2.97 0.495 2.97 0.495 6 1 C5.34 4.63 4.68 8.26 4 12 C4.99 12 5.98 12 7 12 C7 20.91 7 29.82 7 39 C6.67 39 6.34 39 6 39 C6 33.06 6 27.12 6 21 C4.35 21 2.7 21 1 21 C1 23.97 1 26.94 1 30 C0.34 30.33 -0.32 30.66 -1 31 C-0.67 20.77 -0.34 10.54 0 0 Z " fill="#D5E8F4" transform="translate(95,119)"/>
<path d="M0 0 C2.31 0 4.62 0 7 0 C8.17829199 2.35658397 8.04414372 3.52573236 7.87890625 6.1328125 C7.83056641 6.93847656 7.78222656 7.74414062 7.73242188 8.57421875 C7.64831055 9.83685547 7.64831055 9.83685547 7.5625 11.125 C7.51029297 11.97449219 7.45808594 12.82398438 7.40429688 13.69921875 C7.27448622 15.79979124 7.1378826 17.89994191 7 20 C4.69 20 2.38 20 0 20 C0 13.4 0 6.8 0 0 Z " fill="#FCFDFD" transform="translate(53,120)"/>
<path d="M0 0 C0.66 0.33 1.32 0.66 2 1 C2 10.24 2 19.48 2 29 C0.68 29 -0.64 29 -2 29 C-3.66666667 22.33333333 -5.33333333 15.66666667 -7 9 C-4.36 9 -1.72 9 1 9 C0.67 6.03 0.34 3.06 0 0 Z " fill="#DFF1E2" transform="translate(215,131)"/>
<path d="M0 0 C5 1 5 1 6.8125 2.625 C8.46999413 5.93998827 8.39203556 8.34100144 8 12 C6.8125 14.4375 6.8125 14.4375 5 16 C3.35 16 1.7 16 0 16 C0 10.72 0 5.44 0 0 Z " fill="#EEF8F1" transform="translate(156,131)"/>
<path d="M0 0 C1.98 0 3.96 0 6 0 C6 6.6 6 13.2 6 20 C3.03 20 0.06 20 -3 20 C-2.525625 19.2575 -2.05125 18.515 -1.5625 17.75 C1.38102253 12.56940035 1.70471563 7.43548872 0.5 1.5625 C0.335 1.046875 0.17 0.53125 0 0 Z " fill="#F7FCFE" transform="translate(34,140)"/>
<path d="M0 0 C2.475 0.495 2.475 0.495 5 1 C5 7.6 5 14.2 5 21 C3.68 21 2.36 21 1 21 C1 22.98 1 24.96 1 27 C0.67 27 0.34 27 0 27 C0 18.09 0 9.18 0 0 Z " fill="#DEEAF3" transform="translate(75,119)"/>
<path d="M0 0 C1.65 0 3.3 0 5 0 C3.515 5.445 3.515 5.445 2 11 C2.99 11.33 3.98 11.66 5 12 C5 20.91 5 29.82 5 39 C4.67 39 4.34 39 4 39 C4 32.73 4 26.46 4 20 C2.68 20 1.36 20 0 20 C0 13.4 0 6.8 0 0 Z " fill="#DBF3E0" transform="translate(140,120)"/>
<path d="M0 0 C1.65 0 3.3 0 5 0 C5 6.6 5 13.2 5 20 C3.35 20 1.7 20 0 20 C0 13.4 0 6.8 0 0 Z " fill="#F5FBFC" transform="translate(0,120)"/>
<path d="M0 0 C0.66 0 1.32 0 2 0 C2.93087909 3.93288364 3.11608885 7.57654163 3.09765625 11.61328125 C3.09443359 12.86044922 3.09121094 14.10761719 3.08789062 15.39257812 C3.07951172 16.68615234 3.07113281 17.97972656 3.0625 19.3125 C3.05798828 20.62541016 3.05347656 21.93832031 3.04882812 23.29101562 C3.03705959 26.52736328 3.01912463 29.76368745 3 33 C7.95 33 12.9 33 18 33 C18 30.03 18 27.06 18 24 C16.35 24 14.7 24 13 24 C13 23.34 13 22.68 13 22 C15.64 22 18.28 22 21 22 C20.34 25.96 19.68 29.92 19 34 C13.39 34 7.78 34 2 34 C1.93941406 31.99035156 1.87882812 29.98070312 1.81640625 27.91015625 C1.75384551 25.97077331 1.69125143 24.03139127 1.62768555 22.09204102 C1.58428777 20.74085853 1.5426163 19.38961947 1.50268555 18.03833008 C1.44510048 16.09963299 1.38085702 14.16113724 1.31640625 12.22265625 C1.27974854 11.05484619 1.24309082 9.88703613 1.20532227 8.68383789 C1.29923812 6.08220205 1.29923812 6.08220205 0 5 C-0.04063832 3.33382885 -0.042721 1.66611905 0 0 Z " fill="#286090" transform="translate(39,125)"/>
<path d="M0 0 C1.32 0 2.64 0 4 0 C4.33 6.6 4.66 13.2 5 20 C3.35 20 1.7 20 0 20 C0 13.4 0 6.8 0 0 Z " fill="#FBFEFC" transform="translate(140,140)"/>
<path d="M0 0 C0.33 0 0.66 0 1 0 C2.03155536 8.05473782 2.11895318 16.0131121 2.0625 24.125 C2.05798828 25.36765625 2.05347656 26.6103125 2.04882812 27.890625 C2.03714936 30.9271045 2.01921798 33.96355886 2 37 C7.94 37 13.88 37 20 37 C20 37.33 20 37.66 20 38 C13.73 38 7.46 38 1 38 C0.67 29.09 0.34 20.18 0 11 C-0.66 10.67 -1.32 10.34 -2 10 C-1.34 6.7 -0.68 3.4 0 0 Z " fill="#4D985C" transform="translate(144,121)"/>
<path d="M0 0 C0.99 0 1.98 0 3 0 C3 6.6 3 13.2 3 20 C2.01 20 1.02 20 0 20 C0 13.4 0 6.8 0 0 Z " fill="#FDFEFE" transform="translate(80,120)"/>
<path d="M0 0 C4.29 0 8.58 0 13 0 C12.34 2.64 11.68 5.28 11 8 C7.37 8 3.74 8 0 8 C0 9.32 0 10.64 0 12 C-0.66 12 -1.32 12 -2 12 C-2.042721 10.33388095 -2.04063832 8.66617115 -2 7 C-1 6 -1 6 1.50390625 5.90234375 C3.01791016 5.91974609 3.01791016 5.91974609 4.5625 5.9375 C5.57441406 5.94652344 6.58632812 5.95554688 7.62890625 5.96484375 C8.80259766 5.98224609 8.80259766 5.98224609 10 6 C10 4.68 10 3.36 10 2 C6.7 1.67 3.4 1.34 0 1 C0 0.67 0 0.34 0 0 Z " fill="#125896" transform="translate(113,135)"/>
<path d="M0 0 C1.32 0 2.64 0 4 0 C3.91621094 0.71027344 3.83242188 1.42054687 3.74609375 2.15234375 C3.59333984 3.53099609 3.59333984 3.53099609 3.4375 4.9375 C3.33308594 5.85402344 3.22867188 6.77054687 3.12109375 7.71484375 C3.08113281 8.46894531 3.04117188 9.22304687 3 10 C3.33 10.33 3.66 10.66 4 11 C4.07179964 12.51928038 4.08392007 14.04167482 4.0625 15.5625 C4.05347656 16.38878906 4.04445313 17.21507812 4.03515625 18.06640625 C4.02355469 18.70449219 4.01195313 19.34257812 4 20 C2.68 20 1.36 20 0 20 C0 13.4 0 6.8 0 0 Z " fill="#E3EBF3" transform="translate(60,120)"/>
<path d="M0 0 C3.3 0 6.6 0 10 0 C10 1.65 10 3.3 10 5 C6.37 5 2.74 5 -1 5 C-0.67 3.35 -0.34 1.7 0 0 Z " fill="#FCFEFC" transform="translate(189,155)"/>
<path d="M0 0 C8.25 0 16.5 0 25 0 C24.67 3.3 24.34 6.6 24 10 C20.37 10 16.74 10 13 10 C13 9.67 13 9.34 13 9 C16.3 9 19.6 9 23 9 C22.67 7.68 22.34 6.36 22 5 C22.66 3.68 23.32 2.36 24 1 C16.41 1 8.82 1 1 1 C0.67 1.99 0.34 2.98 0 4 C0 2.68 0 1.36 0 0 Z " fill="#125695" transform="translate(101,120)"/>
<path d="M0 0 C1.98 0 3.96 0 6 0 C6 2.64 6 5.28 6 8 C3.69 8 1.38 8 -1 8 C-0.67 5.36 -0.34 2.72 0 0 Z " fill="#FDFEFD" transform="translate(249,132)"/>
<path d="M0 0 C2.475 0.495 2.475 0.495 5 1 C4.67 3.64 4.34 6.28 4 9 C3.01 9 2.02 9 1 9 C1 11.31 1 13.62 1 16 C0.67 16 0.34 16 0 16 C0 10.72 0 5.44 0 0 Z " fill="#C8E5CD" transform="translate(156,131)"/>
<path d="M0 0 C2.375 -0.125 2.375 -0.125 5 0 C5.66 0.66 6.32 1.32 7 2 C6.46428571 5.53571429 6.46428571 5.53571429 5 7 C3.33382885 7.04063832 1.66611905 7.042721 0 7 C0 4.69 0 2.38 0 0 Z " fill="#D2E9F9" transform="translate(17,142)"/>
<path d="M0 0 C0.66 0 1.32 0 2 0 C3.19287411 3.87684087 4 6.91621923 4 11 C2.02 11 0.04 11 -2 11 C-1.34 7.37 -0.68 3.74 0 0 Z " fill="#D0F2D8" transform="translate(193,133)"/>
<path d="M0 0 C2.31 0 4.62 0 7 0 C7 1.98 7 3.96 7 6 C4.69 6 2.38 6 0 6 C0 4.02 0 2.04 0 0 Z " fill="#EBEDEE" transform="translate(53,140)"/>
<path d="M0 0 C2.31 0 4.62 0 7 0 C7 1.32 7 2.64 7 4 C8.65 4 10.3 4 12 4 C12 4.33 12 4.66 12 5 C8.04 5 4.08 5 0 5 C0 3.35 0 1.7 0 0 Z " fill="#C2DCF2" transform="translate(113,130)"/>
<path d="M0 0 C1.98 0 3.96 0 6 0 C6.38218767 1.65614657 6.71395102 3.32457024 7 5 C6 6 6 6 2.9375 6.0625 C1.4834375 6.0315625 1.4834375 6.0315625 0 6 C0 4.02 0 2.04 0 0 Z " fill="#D7ECF7" transform="translate(17,129)"/>
<path d="M0 0 C0.33 0 0.66 0 1 0 C1.11644156 3.08301416 1.18732432 6.16546123 1.25 9.25 C1.30027344 10.55904297 1.30027344 10.55904297 1.3515625 11.89453125 C1.37089844 13.16103516 1.37089844 13.16103516 1.390625 14.453125 C1.41157227 15.22817383 1.43251953 16.00322266 1.45410156 16.80175781 C1 19 1 19 -3 23 C-2.01 18.71 -1.02 14.42 0 10 C-0.66 10 -1.32 10 -2 10 C-1.34 6.7 -0.68 3.4 0 0 Z " fill="#55A868" transform="translate(182,121)"/>
<path d="M0 0 C1.98 0 3.96 0 6 0 C6.042721 1.66611905 6.04063832 3.33382885 6 5 C5 6 5 6 2.4375 6.0625 C1.2309375 6.0315625 1.2309375 6.0315625 0 6 C0 4.02 0 2.04 0 0 Z " fill="#DCF4E1" transform="translate(229,132)"/>
<path d="M0 0 C3.63 0 7.26 0 11 0 C9.68 0.33 8.36 0.66 7 1 C7 1.99 7 2.98 7 4 C4.69 4 2.38 4 0 4 C0 2.68 0 1.36 0 0 Z " fill="#ECFDFF" transform="translate(113,143)"/>
<path d="M0 0 C2.64 0 5.28 0 8 0 C7.34 3.96 6.68 7.92 6 12 C5.67 12 5.34 12 5 12 C5 8.7 5 5.4 5 2 C3.35 2 1.7 2 0 2 C0 1.34 0 0.68 0 0 Z " fill="#2B689F" transform="translate(52,147)"/>
<path d="M0 0 C3.51716303 3.51716303 3.54676163 5.19567333 4 10 C2.68 10 1.36 10 0 10 C0 6.7 0 3.4 0 0 Z " fill="#E6FCEB" transform="translate(229,150)"/>
<path d="M0 0 C1.32 0 2.64 0 4 0 C4 2.31 4 4.62 4 7 C2.68 7 1.36 7 0 7 C0 4.69 0 2.38 0 0 Z " fill="#FAFEFE" transform="translate(76,140)"/>
<path d="M0 0 C1.32 0 2.64 0 4 0 C3.67 3.63 3.34 7.26 3 11 C2.01 11.33 1.02 11.66 0 12 C0 8.04 0 4.08 0 0 Z " fill="#CCDDEC" transform="translate(60,120)"/>
<path d="M0 0 C2.02408755 0.09002398 4.04544287 0.24641038 6.0625 0.4375 C7.71958984 0.59025391 7.71958984 0.59025391 9.41015625 0.74609375 C10.26480469 0.82988281 11.11945313 0.91367188 12 1 C12 1.33 12 1.66 12 2 C8.37 2 4.74 2 1 2 C1 3.32 1 4.64 1 6 C0.34 6 -0.32 6 -1 6 C-1.042721 4.33388095 -1.04063832 2.66617115 -1 1 C-0.67 0.67 -0.34 0.34 0 0 Z " fill="#306CA1" transform="translate(112,141)"/>
<path d="M0 0 C0.99 0 1.98 0 3 0 C3 2.31 3 4.62 3 7 C2.01 7 1.02 7 0 7 C0 4.69 0 2.38 0 0 Z " fill="#F5FEF7" transform="translate(157,140)"/>
<path d="M0 0 C0.99 0 1.98 0 3 0 C2.25 6.625 2.25 6.625 0 10 C0 6.7 0 3.4 0 0 Z " fill="#ECEEEC" transform="translate(140,120)"/>
<path d="M0 0 C0.66 0 1.32 0 2 0 C1.67 1.98 1.34 3.96 1 6 C-2.63 6 -6.26 6 -10 6 C-10 5.67 -10 5.34 -10 5 C-6.7 5 -3.4 5 0 5 C-0.33 3.68 -0.66 2.36 -1 1 C-0.67 0.67 -0.34 0.34 0 0 Z " fill="#1B5E9A" transform="translate(124,124)"/>
<path d="M0 0 C0.33 0 0.66 0 1 0 C1.49230769 6.4 1.49230769 6.4 -1 9.4375 C-1.99 10.2109375 -1.99 10.2109375 -3 11 C-3 9.68 -3 8.36 -3 7 C-2.34 7 -1.68 7 -1 7 C-0.67 4.69 -0.34 2.38 0 0 Z " fill="#C6E8CD" transform="translate(163,136)"/>
<path d="M0 0 C0.66 0 1.32 0 2 0 C2.042721 1.66611905 2.04063832 3.33382885 2 5 C1 6 1 6 -2.5625 6.0625 C-3.696875 6.041875 -4.83125 6.02125 -6 6 C-6 5.67 -6 5.34 -6 5 C-4.35 4.67 -2.7 4.34 -1 4 C-0.67 2.68 -0.34 1.36 0 0 Z " fill="#56AB69" transform="translate(235,133)"/>
<path d="M0 0 C0.66 0 1.32 0 2 0 C2 1.32 2 2.64 2 4 C-0.31 4 -2.62 4 -5 4 C-5 3.34 -5 2.68 -5 2 C-3.35 2 -1.7 2 0 2 C0 1.34 0 0.68 0 0 Z " fill="#59A76A" transform="translate(273,127)"/>
<path d="M0 0 C0.33 0 0.66 0 1 0 C1 3.3 1 6.6 1 10 C0.01 10 -0.98 10 -2 10 C-1.34 6.7 -0.68 3.4 0 0 Z " fill="#50A462" transform="translate(144,121)"/>
<path d="M0 0 C2.29013653 3.4352048 2.17842973 4.985331 2 9 C1.34 8.34 0.68 7.68 0 7 C-0.99 7.495 -0.99 7.495 -2 8 C-1.34 5.36 -0.68 2.72 0 0 Z " fill="#CBECD2" transform="translate(175,144)"/>
</svg>
