<?xml version="1.0" standalone="no"?>
<!DOCTYPE svg PUBLIC "-//W3C//DTD SVG 20010904//EN"
 "http://www.w3.org/TR/2001/REC-SVG-20010904/DTD/svg10.dtd">
<svg version="1.0" xmlns="http://www.w3.org/2000/svg"
 width="564.000000pt" height="564.000000pt" viewBox="0 0 564.000000 564.000000"
 preserveAspectRatio="xMidYMid meet">

<g transform="translate(0.000000,564.000000) scale(0.100000,-0.100000)"
fill="#000000" stroke="none">
<path d="M2218 5277 c-5 -11 -16 -58 -24 -106 -16 -103 -34 -171 -44 -171 -5
0 -11 -19 -15 -42 -3 -24 -17 -88 -30 -143 -71 -292 -91 -419 -106 -665 -10
-164 -14 -193 -39 -255 -27 -66 -60 -180 -60 -204 0 -6 15 -18 33 -27 17 -9
33 -18 35 -19 2 -1 -4 -20 -12 -41 -37 -94 -73 -265 -90 -431 -13 -122 -13
-129 5 -149 26 -28 25 -105 -5 -245 -13 -63 -27 -143 -31 -179 l-6 -65 51 -37
c28 -21 60 -38 71 -38 20 0 21 -5 19 -212 -1 -117 -1 -243 0 -280 2 -54 -3
-80 -28 -140 -16 -40 -33 -95 -37 -122 -6 -42 -5 -48 10 -43 25 10 30 -20 11
-72 -9 -25 -16 -72 -16 -104 0 -32 -4 -66 -9 -75 -5 -9 -16 -40 -24 -69 -15
-51 -15 -53 10 -90 25 -36 25 -39 14 -123 -15 -117 -14 -284 3 -345 27 -103
63 -155 189 -277 66 -65 126 -118 134 -118 18 0 17 -10 -13 -106 -27 -87 -27
-138 1 -101 21 29 57 158 53 189 -5 32 -1 34 28 14 37 -26 142 -38 274 -31
143 7 175 16 195 56 21 39 19 162 -2 222 -17 47 -17 49 3 65 43 35 63 401 30
532 -10 38 -20 141 -26 252 -5 102 -13 203 -18 225 -17 65 -25 381 -11 438 6
28 11 107 10 178 -1 124 0 131 40 260 23 72 50 143 60 157 10 14 23 57 29 95
6 39 13 83 16 99 10 46 24 10 24 -59 0 -35 11 -98 25 -148 31 -106 44 -201 45
-327 1 -52 6 -117 11 -145 22 -112 28 -277 13 -390 -7 -60 -19 -155 -24 -210
-6 -55 -15 -116 -20 -135 -6 -19 -10 -60 -10 -91 0 -32 -10 -85 -24 -125 -53
-156 -78 -290 -75 -403 2 -78 -2 -121 -15 -164 l-17 -59 30 -54 c17 -29 31
-67 31 -83 0 -47 87 -129 184 -175 l80 -38 120 4 c102 2 128 7 164 25 42 23
42 23 42 2 0 -11 5 -29 11 -40 8 -16 13 -18 24 -9 18 15 39 114 26 118 -6 2 0
20 13 40 12 20 25 45 29 54 3 9 48 48 99 86 81 61 97 78 125 134 17 34 36 78
42 97 18 58 12 231 -14 429 -5 34 -3 42 10 42 22 0 87 34 108 57 19 21 15 35
-70 266 -22 60 -25 79 -15 85 16 10 -36 145 -81 211 l-31 45 -3 185 c-3 102
-1 220 4 261 l8 75 45 5 c43 5 46 7 72 60 32 64 34 91 12 180 -14 57 -25 256
-25 460 0 52 -32 186 -60 250 -11 25 -25 82 -31 128 -9 72 -9 84 5 95 14 11
14 21 1 102 -8 50 -21 110 -29 135 -7 25 -17 99 -20 165 -6 110 -36 337 -69
510 -15 80 -67 290 -104 415 -13 47 -32 129 -42 183 -10 55 -22 103 -26 107
-9 8 -454 -4 -531 -15 -23 -3 -116 -1 -205 4 -90 6 -245 12 -346 14 -172 3
-184 2 -194 -16z m742 -71 c0 -2 -7 -7 -16 -10 -8 -3 -12 -2 -9 4 6 10 25 14
25 6z m-20 -36 c0 -5 -2 -10 -4 -10 -3 0 -8 5 -11 10 -3 6 -1 10 4 10 6 0 11
-4 11 -10z m580 -4799 c0 -37 -16 -49 -24 -18 -9 35 -7 47 9 47 10 0 15 -10
15 -29z m-1290 -116 c-16 -47 -23 -40 -9 9 6 21 13 36 16 33 3 -3 0 -22 -7
-42z"/>
</g>
</svg>
