<?xml version="1.0" standalone="no"?>
<!DOCTYPE svg PUBLIC "-//W3C//DTD SVG 20010904//EN"
 "http://www.w3.org/TR/2001/REC-SVG-20010904/DTD/svg10.dtd">
<svg version="1.0" xmlns="http://www.w3.org/2000/svg"
 width="564.000000pt" height="564.000000pt" viewBox="0 0 564.000000 564.000000"
 preserveAspectRatio="xMidYMid meet">

<g transform="translate(0.000000,564.000000) scale(0.100000,-0.100000)"
fill="#000000" stroke="none">
<path d="M4079 5551 c-99 -14 -128 -54 -144 -202 -10 -99 -14 -112 -41 -140
-28 -29 -28 -31 -10 -44 15 -11 19 -29 21 -82 1 -37 5 -78 9 -89 5 -18 -2 -30
-41 -63 -26 -22 -68 -48 -93 -56 -25 -8 -56 -22 -68 -31 -27 -19 -62 -85 -62
-117 0 -13 -9 -32 -20 -42 -20 -19 -28 -41 -10 -30 6 3 10 2 10 -4 0 -5 -4
-12 -9 -15 -13 -8 0 -59 18 -73 9 -7 11 -13 5 -13 -11 0 -34 -42 -34 -60 0 -6
6 -10 13 -10 7 0 22 -6 32 -14 18 -13 17 -16 -10 -82 -25 -64 -27 -75 -21
-164 4 -61 12 -100 21 -110 8 -9 15 -20 15 -25 0 -4 9 -16 20 -25 17 -15 19
-25 14 -59 -10 -65 -37 -91 -90 -91 -25 0 -54 -5 -65 -11 -17 -8 -24 -6 -39
14 -33 42 -80 57 -175 57 -101 0 -147 -17 -176 -64 -10 -17 -19 -43 -19 -58 0
-31 -12 -45 -87 -102 -29 -22 -50 -43 -47 -48 8 -12 48 -10 62 4 7 7 12 8 12
2 0 -19 -46 -54 -72 -54 -19 0 -29 -9 -43 -39 -9 -22 -14 -44 -11 -49 4 -6 -7
-18 -23 -28 -16 -9 -27 -23 -24 -30 4 -10 -22 -74 -30 -74 -2 0 -46 9 -97 20
-51 11 -98 20 -102 20 -5 0 -16 -17 -25 -37 -24 -58 -185 -516 -187 -532 -1
-10 41 -25 147 -52 82 -20 150 -39 152 -41 3 -2 10 -80 16 -174 6 -93 13 -171
16 -173 3 -5 149 5 438 30 90 7 150 19 238 47 l119 37 -7 44 c-4 24 -9 50 -12
59 -10 26 21 8 35 -21 12 -24 47 -45 59 -34 2 3 20 -5 38 -17 18 -13 60 -29
94 -36 39 -8 62 -18 65 -29 3 -9 14 -56 25 -106 14 -63 36 -121 74 -195 36
-70 58 -128 67 -174 12 -67 12 -70 -9 -87 -12 -10 -26 -19 -31 -21 -6 -2 -4
-23 4 -55 8 -30 12 -81 10 -120 -4 -75 17 -208 40 -251 19 -34 20 -25 2 24
-28 82 -28 210 1 180 4 -5 2 -11 -4 -13 -15 -5 -18 -53 -4 -53 5 0 17 -19 26
-42 22 -53 24 -230 4 -255 -11 -12 -10 -17 4 -24 19 -11 23 -54 7 -64 -6 -4
-7 -12 -1 -23 9 -16 5 -31 -23 -97 -8 -16 -19 -44 -26 -62 -7 -18 -20 -35 -30
-38 -11 -3 -20 -17 -22 -33 -3 -23 -11 -30 -68 -49 -36 -12 -88 -22 -116 -23
-53 0 -90 -18 -82 -40 2 -7 33 -24 68 -39 58 -23 79 -26 192 -26 123 0 128 1
155 26 15 15 38 32 50 38 13 6 26 23 29 37 4 14 21 35 39 47 18 12 49 35 70
51 46 37 55 27 55 -66 0 -49 4 -68 13 -68 9 0 16 30 24 96 7 59 17 102 27 113
23 26 20 42 -25 127 -22 42 -38 83 -35 90 3 7 -7 22 -22 32 l-26 20 11 117 c7
64 17 123 23 130 8 10 8 19 0 35 -6 11 -8 25 -5 30 11 17 56 -22 76 -66 11
-23 29 -50 40 -60 10 -9 19 -27 19 -38 0 -12 14 -39 30 -60 19 -25 30 -51 30
-73 0 -26 6 -36 31 -48 27 -14 30 -21 28 -53 -2 -20 5 -64 15 -97 18 -56 28
-88 71 -210 10 -27 18 -66 19 -85 1 -19 10 -47 20 -62 9 -14 16 -32 15 -40 -1
-7 1 -46 6 -85 7 -66 10 -73 29 -73 22 0 122 57 167 95 53 44 76 83 82 135 7
55 -1 81 -34 113 -20 19 -25 52 -10 62 17 10 -39 138 -83 190 -51 60 -76 108
-76 146 0 16 -9 46 -21 68 -15 29 -19 49 -14 71 5 21 2 39 -9 55 -9 13 -16 34
-16 45 0 11 -10 34 -21 50 -12 16 -19 35 -16 42 3 9 51 22 133 37 71 12 143
26 159 31 26 8 270 60 281 60 2 0 4 11 4 26 0 19 7 28 29 35 18 6 31 19 33 31
2 16 26 30 103 60 55 22 103 43 108 47 11 11 -120 344 -212 535 -80 166 -81
168 -108 161 -16 -3 -38 -9 -49 -11 -17 -4 -23 0 -28 21 -4 15 -20 55 -36 89
-32 67 -36 90 -20 130 6 18 17 26 33 26 32 0 94 48 107 84 5 16 10 42 10 57 0
29 -39 191 -58 240 -13 32 -77 89 -101 89 -26 0 -35 14 -61 95 -13 39 -34 93
-48 120 -16 32 -28 77 -32 125 -7 62 -12 78 -33 96 -20 17 -29 42 -47 128 -12
59 -32 139 -46 179 -24 72 -31 181 -12 193 4 3 8 17 8 31 0 14 9 41 21 60 16
26 20 42 14 71 -7 37 -32 75 -45 67 -9 -6 -1 134 9 153 4 8 25 16 45 18 20 2
41 6 46 9 15 9 12 25 -3 25 -26 0 -50 40 -57 97 -4 32 -8 52 -9 45 -1 -10 -10
-7 -31 8 -17 12 -29 27 -27 33 2 7 -3 18 -10 26 -8 7 -12 19 -9 26 3 8 -9 15
-32 19 -20 3 -56 21 -78 38 -23 18 -62 45 -86 59 -37 22 -47 34 -58 74 -15 54
-70 141 -103 165 -35 24 -140 69 -164 70 -12 0 -43 11 -69 25 -26 14 -52 24
-58 24 -6 -1 -32 -5 -57 -8z m681 -471 c0 -5 -4 -10 -10 -10 -5 0 -10 5 -10
10 0 6 5 10 10 10 6 0 10 -4 10 -10z m110 -200 c0 -5 -4 -10 -10 -10 -5 0 -10
5 -10 10 0 6 5 10 10 10 6 0 10 -4 10 -10z m-34 -298 c-9 -9 -37 8 -31 18 5 8
11 7 21 -1 8 -6 12 -14 10 -17z m-1161 8 c3 -5 1 -10 -4 -10 -6 0 -11 5 -11
10 0 6 2 10 4 10 3 0 8 -4 11 -10z m1190 -49 c-3 -12 -11 -21 -16 -21 -6 0 -8
3 -6 8 2 4 7 16 11 26 9 25 20 13 11 -13z m-1210 -21 c-3 -5 -11 -10 -16 -10
-6 0 -7 5 -4 10 3 6 11 10 16 10 6 0 7 -4 4 -10z m15 -30 c0 -5 -4 -10 -10
-10 -5 0 -10 5 -10 10 0 6 5 10 10 10 6 0 10 -4 10 -10z m914 -734 c9 -19 16
-45 16 -58 0 -13 19 -62 43 -109 36 -70 42 -89 35 -114 -5 -17 -6 -38 -4 -48
2 -10 -7 -38 -22 -64 -20 -36 -25 -59 -24 -107 1 -60 38 -193 69 -247 19 -33
67 -58 118 -63 43 -4 110 -38 118 -60 3 -7 -15 -58 -40 -112 -45 -101 -60
-126 -51 -87 7 26 -7 33 -68 33 -39 0 -46 -3 -55 -27 -5 -15 -7 -43 -4 -63 5
-32 3 -39 -19 -53 -15 -10 -46 -17 -74 -17 l-49 0 -12 -52 c-7 -29 -25 -115
-40 -191 -16 -76 -31 -141 -35 -145 -12 -11 -45 36 -57 80 -29 110 -38 245
-17 266 7 7 20 12 30 12 10 0 31 12 48 28 l31 27 16 215 c21 276 24 830 5 912
-23 98 4 125 42 44z m-908 -238 c-13 -152 -36 -366 -46 -433 -6 -38 -15 -104
-19 -145 -9 -80 -37 -199 -51 -214 -4 -4 -13 18 -20 50 -59 293 -151 674 -163
674 -1 0 -40 -7 -87 -15 -128 -23 -125 -23 -155 42 -29 64 -20 92 15 44 36
-51 73 -65 160 -58 41 4 99 13 128 22 45 14 56 22 67 50 14 32 18 33 87 43 40
5 77 10 82 11 5 0 6 -30 2 -71z m-689 10 c-2 -13 -4 -5 -4 17 -1 22 1 32 4 23
2 -10 2 -28 0 -40z m57 16 c9 -3 13 -11 10 -16 -4 -6 -1 -13 5 -17 6 -4 14
-25 16 -47 l5 -39 -15 40 -14 40 5 -52 c5 -44 3 -53 -10 -53 -20 0 -32 29 -38
98 -5 53 0 60 36 46z m96 -112 c0 -9 -5 -10 -19 -3 -18 10 -44 85 -33 96 7 7
51 -73 52 -93z m-220 1 c0 -7 -7 -13 -15 -13 -16 0 -19 9 -9 35 5 13 8 14 15
3 5 -7 9 -19 9 -25z m2040 -493 c0 -5 -4 -10 -10 -10 -5 0 -10 5 -10 10 0 6 5
10 10 10 6 0 10 -4 10 -10z m183 -130 c14 -36 22 -69 18 -73 -4 -4 -21 -9 -37
-10 -28 -2 -29 -1 -27 43 2 31 0 39 -6 25 -7 -17 -8 -17 -15 8 -7 30 0 51 15
42 5 -4 9 6 9 21 0 38 12 22 43 -56z m-121 13 l-5 -38 -16 33 c-13 28 -13 34
-1 42 22 13 27 5 22 -37z m-23 -21 c24 -63 25 -107 1 -107 -15 0 -24 33 -33
118 -2 26 -2 47 2 47 3 0 17 -26 30 -58z m-30 -95 c1 -10 -3 -15 -9 -12 -5 3
-9 30 -9 58 l1 52 9 -40 c4 -22 8 -48 8 -58z m80 35 c1 -7 -3 -10 -9 -7 -5 3
-10 18 -9 33 0 24 1 25 9 7 5 -11 9 -26 9 -33z m30 -15 c1 -10 -3 -15 -9 -12
-5 3 -10 23 -9 43 1 33 2 34 9 12 4 -14 8 -33 9 -43z m-153 -44 c-3 -8 -12
-13 -19 -10 -6 2 -17 -3 -23 -11 -6 -8 -16 -13 -22 -11 -7 3 -2 25 16 63 24
53 27 57 33 35 7 -23 7 -23 10 6 2 23 3 20 6 -14 3 -24 2 -50 -1 -58z m-76
-85 c0 -19 -2 -20 -10 -8 -13 19 -13 30 0 30 6 0 10 -10 10 -22z"/>
<path d="M4901 2704 c0 -11 3 -14 6 -6 3 7 2 16 -1 19 -3 4 -6 -2 -5 -13z"/>
<path d="M1003 5353 c-60 -21 -105 -78 -137 -173 -29 -88 -27 -120 9 -185 13
-22 30 -61 40 -87 23 -63 13 -86 -76 -179 -155 -159 -219 -396 -206 -754 4
-88 12 -207 18 -265 18 -156 16 -532 -3 -795 -10 -126 -19 -262 -21 -302 l-3
-71 54 -7 c29 -4 76 -14 105 -24 70 -24 74 -48 13 -92 -66 -47 -61 -53 6 -7
14 10 29 18 32 18 16 0 3 -37 -21 -63 -16 -17 -23 -27 -17 -24 7 4 15 0 18 -9
8 -21 8 -24 -5 -24 -5 0 -7 6 -3 13 5 9 4 9 -6 0 -9 -9 -23 -8 -57 2 -25 8
-50 12 -57 9 -7 -3 -64 24 -127 60 l-114 64 -19 -21 c-33 -38 -316 -438 -316
-447 0 -4 70 -52 155 -106 l156 -99 -3 -40 -3 -40 60 -5 c59 -5 60 -5 60 -35
-1 -16 -4 -56 -9 -88 -5 -36 -4 -57 2 -57 6 0 46 -14 89 -30 l80 -30 -35 -108
c-92 -289 -147 -436 -183 -492 -67 -104 -71 -116 -68 -195 3 -59 0 -77 -14
-93 -32 -35 -54 -142 -60 -292 -2 -31 2 -37 38 -55 54 -26 234 -34 247 -10 13
21 125 21 149 -1 37 -34 272 -25 363 14 36 15 38 18 33 54 -10 75 -25 86 -128
94 -59 4 -95 12 -102 21 -7 8 -31 35 -55 59 -23 25 -42 50 -42 56 0 7 16 35
36 64 28 41 54 107 109 286 85 274 146 450 152 444 5 -4 48 -192 118 -507 19
-85 44 -176 55 -202 12 -27 18 -53 13 -60 -19 -30 -14 -319 7 -332 4 -2 5 -27
2 -55 l-5 -50 47 -21 c66 -29 231 -32 252 -5 12 17 22 18 81 12 37 -4 77 -13
88 -20 19 -13 176 -14 250 -2 77 12 123 24 158 40 33 16 37 22 37 56 0 21 -6
45 -12 52 -7 8 -18 23 -24 33 -8 15 -33 24 -95 36 -137 25 -158 35 -225 105
l-61 64 18 54 c26 75 13 143 -60 319 -32 78 -66 166 -76 194 -9 29 -20 55 -25
58 -5 3 3 25 16 50 l25 44 -12 283 c-11 259 -14 291 -39 374 -24 80 -26 95
-15 121 17 40 37 284 34 420 -2 103 -1 108 20 111 19 3 21 9 21 75 0 63 -5 97
-26 182 -2 11 7 -3 20 -31 13 -29 27 -67 31 -85 9 -44 33 -71 56 -64 10 3 27
0 38 -7 17 -10 25 -10 41 -1 13 9 21 9 26 2 3 -6 19 -9 34 -6 l27 6 7 -76 c3
-42 6 -109 6 -149 0 -70 -1 -74 -33 -101 l-34 -28 47 -171 c26 -94 66 -227 88
-295 23 -68 46 -151 53 -185 17 -90 12 -88 115 -69 49 9 118 22 153 28 64 12
64 12 155 111 72 78 104 104 151 126 33 15 67 36 76 46 18 21 139 240 139 252
0 25 -532 512 -560 512 -4 0 -17 -11 -29 -24 l-23 -25 -57 31 c-152 84 -147
78 -183 195 -27 89 -40 116 -81 165 -28 33 -57 74 -67 91 -51 96 -144 236
-175 263 -22 20 -42 51 -54 86 -10 30 -35 90 -56 134 -50 106 -52 115 -75 294
-37 288 -121 549 -251 781 l-49 86 28 53 c25 51 31 55 85 71 79 23 90 34 83
80 -4 26 -2 40 10 50 10 8 14 26 13 55 -2 24 3 49 10 58 12 14 8 22 -23 60
-26 32 -36 54 -36 79 0 44 -53 149 -91 181 -62 53 -223 73 -316 39z m987
-2719 c0 -8 -4 -14 -10 -14 -5 0 -10 9 -10 21 0 11 5 17 10 14 6 -3 10 -13 10
-21z m-160 -16 c0 -19 -2 -20 -10 -8 -13 19 -13 30 0 30 6 0 10 -10 10 -22z
m373 -82 c37 -21 67 -42 67 -48 0 -6 -7 -8 -15 -5 -8 4 -22 -5 -34 -21 -19
-26 -20 -26 -40 -8 -11 10 -37 43 -57 72 -40 58 -56 66 -29 15 16 -32 7 -42
-15 -16 -8 9 -10 28 -6 50 l7 36 27 -19 c15 -11 57 -36 95 -56z m-151 17 c-10
-4 -10 -8 -2 -18 7 -8 10 -22 8 -32 -2 -14 -7 -12 -22 11 -15 23 -16 30 -5 37
8 5 19 8 24 8 6 0 4 -3 -3 -6z m-10 -95 c20 -40 38 -89 41 -108 4 -32 1 -38
-29 -58 -18 -12 -38 -22 -43 -22 -6 0 -11 56 -13 130 -2 72 -1 130 2 130 3 0
22 -33 42 -72z m75 28 c15 -13 36 -37 45 -54 l18 -29 -41 -38 c-22 -20 -43
-34 -47 -30 -3 3 0 10 7 14 10 7 10 13 2 29 -16 29 -14 37 6 21 13 -11 12 -7
-4 16 -21 30 -36 95 -22 95 4 0 20 -11 36 -24z"/>
</g>
</svg>
