<?xml version="1.0" standalone="no"?>
<!DOCTYPE svg PUBLIC "-//W3C//DTD SVG 20010904//EN"
 "http://www.w3.org/TR/2001/REC-SVG-20010904/DTD/svg10.dtd">
<svg version="1.0" xmlns="http://www.w3.org/2000/svg"
 width="474.000000pt" height="474.000000pt" viewBox="0 0 474.000000 474.000000"
 preserveAspectRatio="xMidYMid meet">

<g transform="translate(0.000000,474.000000) scale(0.100000,-0.100000)"
fill="#000000" stroke="none">
<path d="M1443 3677 c9 -23 410 -627 416 -627 7 1 423 610 429 629 3 8 -113
11 -423 11 -339 0 -426 -3 -422 -13z"/>
<path d="M2500 3686 c0 -5 419 -618 430 -630 7 -7 354 504 424 622 6 9 -82 12
-423 12 -237 0 -431 -2 -431 -4z"/>
<path d="M1060 3328 c-146 -171 -266 -315 -268 -320 -2 -4 213 -8 478 -8 415
0 481 2 477 14 -10 26 -409 626 -416 625 -3 0 -125 -140 -271 -311z"/>
<path d="M2183 3332 c-116 -169 -213 -313 -217 -319 -6 -10 83 -13 429 -13
346 0 436 3 432 13 -7 18 -416 615 -426 621 -5 3 -103 -133 -218 -302z"/>
<path d="M3250 3328 c-113 -171 -206 -315 -208 -320 -2 -4 213 -8 477 -8 265
0 481 3 481 8 0 8 -529 626 -539 629 -3 1 -98 -138 -211 -309z"/>
<path d="M790 2893 c0 -8 127 -161 1096 -1329 206 -248 381 -460 389 -470 8
-10 15 -14 15 -8 0 15 -468 1792 -475 1804 -7 12 -1025 14 -1025 3z"/>
<path d="M1930 2889 c0 -6 81 -320 181 -698 99 -377 203 -771 230 -876 28
-104 52 -191 54 -194 7 -6 5 -11 120 429 300 1144 344 1311 351 1333 5 16 -22
17 -465 17 -342 0 -471 -3 -471 -11z"/>
<path d="M2975 2888 c-2 -7 -32 -119 -65 -248 -34 -129 -88 -336 -121 -460
-32 -124 -81 -310 -109 -415 -27 -104 -78 -300 -114 -435 -35 -135 -63 -246
-62 -247 1 -2 43 45 92 105 49 59 186 224 304 367 119 143 391 471 604 730
214 259 410 495 435 525 25 30 52 63 60 73 13 16 -13 17 -503 17 -404 0 -518
-3 -521 -12z"/>
</g>
</svg>
