<?xml version="1.0" standalone="no"?>
<!DOCTYPE svg PUBLIC "-//W3C//DTD SVG 20010904//EN"
 "http://www.w3.org/TR/2001/REC-SVG-20010904/DTD/svg10.dtd">
<svg version="1.0" xmlns="http://www.w3.org/2000/svg"
 width="1920.000000pt" height="1920.000000pt" viewBox="0 0 1920.000000 1920.000000"
 preserveAspectRatio="xMidYMid meet">

<g transform="translate(0.000000,1920.000000) scale(0.100000,-0.100000)"
fill="#000000" stroke="none">
<path d="M7620 17904 c-159 -42 -289 -185 -319 -348 -7 -41 -11 -366 -11
-1012 l0 -952 -27 -6 c-58 -14 -271 -128 -348 -185 -96 -73 -206 -180 -245
-240 -87 -131 -107 -316 -51 -477 11 -30 56 -110 99 -177 386 -596 551 -1146
598 -1994 l7 -123 2278 0 2278 0 5 53 c3 28 8 104 11 167 37 716 223 1328 563
1850 96 147 128 211 147 291 39 168 -5 347 -119 476 -60 69 -212 191 -306 247
-45 27 -123 65 -174 86 l-91 37 -5 994 c-5 951 -6 996 -24 1039 -93 219 -311
332 -531 275 -158 -42 -278 -162 -320 -320 -13 -51 -15 -188 -15 -1010 l0
-951 -117 -28 c-332 -79 -791 -269 -1185 -490 l-116 -65 -129 71 c-409 227
-861 413 -1185 488 l-98 22 0 927 c0 590 -4 950 -11 991 -28 180 -166 329
-340 369 -62 15 -154 12 -219 -5z"/>
<path d="M7330 11625 l0 -365 2270 0 2270 0 2 358 c2 196 2 360 0 365 -2 4
-1024 7 -2273 7 l-2269 0 0 -365z"/>
<path d="M7078 10612 c-670 -1161 -1418 -2219 -2197 -3112 -257 -294 -466
-516 -790 -840 -392 -392 -726 -700 -1111 -1024 -128 -108 -161 -143 -205
-221 -46 -82 -66 -158 -66 -256 -1 -141 41 -259 128 -358 48 -55 231 -195 521
-399 194 -137 588 -402 598 -402 6 0 82 72 367 350 436 424 921 1001 1366
1623 508 712 989 1493 1716 2787 97 173 186 326 198 339 50 55 149 76 218 47
95 -40 148 -150 117 -242 -15 -41 -177 -334 -491 -884 -1139 -1996 -1983
-3146 -3058 -4166 -145 -138 -170 -178 -177 -289 -6 -89 15 -162 63 -227 60
-82 678 -513 1096 -766 615 -371 1256 -677 1841 -877 l127 -44 65 149 c382
867 738 2024 1200 3898 54 223 81 314 100 342 44 66 137 101 215 80 46 -12
105 -59 126 -100 35 -68 33 -78 -119 -685 -446 -1776 -753 -2766 -1128 -3633
-38 -90 -69 -165 -67 -166 7 -6 203 -55 339 -85 334 -73 630 -118 1015 -153
212 -20 883 -16 1105 5 333 33 605 74 904 138 161 34 365 85 373 92 2 3 -31
90 -76 194 -380 892 -684 1875 -1132 3667 -143 571 -143 571 -89 645 43 58 94
86 160 85 87 0 158 -46 188 -121 6 -15 70 -264 142 -553 396 -1586 679 -2528
1005 -3335 85 -209 190 -453 200 -463 2 -3 71 19 152 48 783 277 1512 651
2288 1174 300 203 567 399 609 448 55 64 78 137 74 233 -5 121 -26 155 -187
309 -1031 982 -1854 2088 -2908 3911 -210 363 -591 1040 -619 1100 -13 28 -24
66 -24 86 0 52 44 132 91 164 75 52 190 42 251 -23 15 -15 126 -205 248 -422
886 -1577 1489 -2513 2154 -3345 343 -429 646 -758 1137 -1232 l116 -113 239
162 c462 311 818 575 883 653 49 59 95 150 111 220 17 71 14 208 -6 273 -39
136 -78 184 -328 399 -1052 910 -1856 1766 -2640 2813 -495 661 -1035 1487
-1456 2228 l-64 112 -2386 0 -2385 -1 -137 -237z"/>
</g>
</svg>
