<?xml version="1.0" standalone="no"?>
<!DOCTYPE svg PUBLIC "-//W3C//DTD SVG 20010904//EN"
 "http://www.w3.org/TR/2001/REC-SVG-20010904/DTD/svg10.dtd">
<svg version="1.0" xmlns="http://www.w3.org/2000/svg"
 width="736.000000pt" height="981.000000pt" viewBox="0 0 736.000000 981.000000"
 preserveAspectRatio="xMidYMid meet">

<g transform="translate(0.000000,981.000000) scale(0.100000,-0.100000)"
fill="#000000" stroke="none">
<path d="M3598 9558 c-27 -11 -48 -24 -48 -29 0 -5 16 1 35 12 19 11 56 24 82
29 42 7 44 8 13 8 -19 1 -56 -8 -82 -20z"/>
<path d="M3780 9566 c55 -15 102 -39 119 -60 8 -9 18 -16 23 -16 6 0 5 6 -2
15 -19 23 -131 75 -159 74 -19 -1 -14 -4 19 -13z"/>
<path d="M3504 9488 l-29 -33 33 29 c30 28 37 36 29 36 -2 0 -16 -15 -33 -32z"/>
<path d="M3939 8723 c-13 -16 -12 -17 4 -4 9 7 17 15 17 17 0 8 -8 3 -21 -13z"/>
<path d="M3716 8701 c-3 -4 6 -6 19 -3 14 2 25 6 25 8 0 8 -39 4 -44 -5z"/>
<path d="M3853 8703 c9 -2 25 -2 35 0 9 3 1 5 -18 5 -19 0 -27 -2 -17 -5z"/>
<path d="M3677 8463 c-3 -16 -3 -30 -1 -33 7 -7 24 23 24 43 0 27 -17 20 -23
-10z"/>
<path d="M2172 8121 c-56 -15 -102 -71 -102 -125 0 -14 -4 -35 -9 -48 -39
-101 -141 -494 -141 -542 0 -15 7 -38 16 -51 16 -24 15 -26 -33 -72 -102 -100
-221 -319 -302 -555 -56 -164 -74 -204 -103 -228 -14 -11 -32 -60 -58 -160
-20 -80 -63 -244 -95 -365 -32 -121 -68 -267 -82 -325 -41 -179 -102 -446
-148 -650 -41 -184 -155 -744 -225 -1110 -18 -91 -51 -264 -75 -385 -49 -249
-74 -391 -109 -615 -14 -85 -39 -235 -55 -332 -36 -210 -56 -410 -47 -473 6
-40 14 -50 62 -86 30 -23 54 -48 54 -56 0 -9 -15 -77 -34 -152 -19 -76 -32
-148 -29 -163 7 -34 71 -94 126 -117 89 -38 242 -75 309 -76 87 0 118 21 134
91 6 27 28 102 48 166 27 84 43 119 56 123 10 3 49 38 86 78 38 39 75 72 83
72 8 0 16 7 18 15 4 13 3 13 -6 0 -5 -8 -13 -12 -16 -8 -4 3 7 21 24 40 17 18
31 27 31 21 0 -7 -4 -13 -10 -13 -5 0 -9 -11 -8 -25 1 -14 8 -25 16 -25 7 0
11 4 7 9 -6 10 34 37 48 33 10 -3 9 26 -2 32 -5 4 -12 1 -14 -4 -4 -7 -5 -6
-3 1 1 6 36 13 86 15 46 3 87 7 91 10 4 2 11 -1 15 -7 4 -8 3 -9 -4 -5 -7 4
-12 2 -12 -3 0 -6 4 -11 9 -11 5 0 12 -10 14 -22 3 -18 5 -17 6 7 3 63 21 -5
46 -181 14 -98 28 -186 31 -196 2 -9 21 -24 40 -33 33 -15 96 -17 728 -14 380
1 720 2 756 2 36 0 479 -2 985 -5 907 -6 1084 -3 1104 17 6 6 17 60 25 120 13
101 60 306 75 330 3 6 11 51 17 100 6 50 17 104 24 120 11 28 13 28 21 10 8
-19 8 -19 15 3 l7 23 13 -27 c8 -14 12 -36 10 -48 -2 -11 -1 -15 1 -8 3 9 10
4 19 -13 8 -15 14 -31 14 -35 0 -26 203 -325 244 -359 34 -29 95 -149 126
-250 22 -73 40 -112 59 -132 26 -26 33 -27 87 -23 138 13 320 60 374 96 83 57
90 104 44 273 -15 55 -28 116 -28 135 -1 30 4 37 42 58 67 37 77 61 75 168 -1
97 -15 230 -38 379 -8 50 -22 137 -31 195 -9 58 -40 238 -69 401 -30 162 -59
322 -64 355 -12 66 -230 1144 -286 1409 -78 370 -211 917 -311 1275 -93 332
-117 406 -140 430 -14 15 -40 76 -63 147 -71 218 -209 464 -312 557 -35 32
-40 42 -31 55 38 52 46 81 33 114 -15 36 -34 102 -86 302 -77 293 -92 322
-174 345 -23 7 -203 10 -515 8 l-478 -3 62 -85 c35 -47 112 -134 171 -195 60
-60 105 -112 100 -115 -4 -3 -11 -34 -14 -69 -4 -45 -10 -67 -22 -73 -13 -8
-14 -12 -3 -26 10 -13 10 -14 0 -8 -7 4 -20 2 -28 -5 -16 -13 -132 42 -564
266 l-205 107 -30 -17 c-16 -10 -113 -60 -214 -112 -102 -52 -237 -123 -300
-157 -263 -143 -313 -168 -321 -160 -26 27 -88 160 -70 149 6 -3 10 0 10 7 0
16 9 24 105 95 73 54 130 109 183 178 31 42 132 201 132 209 0 3 -154 5 -342
5 -189 0 -406 3 -483 5 -77 3 -155 1 -173 -3z m1608 -1026 l0 -125 -106 0
c-91 0 -112 3 -140 21 -38 23 -38 26 -28 152 l7 77 133 0 134 0 0 -125z"/>
<path d="M3562 7188 c2 -6 10 -14 16 -16 7 -2 10 2 6 12 -7 18 -28 22 -22 4z"/>
<path d="M3610 7186 c0 -7 7 -13 15 -13 8 0 15 4 15 8 0 4 -7 9 -15 13 -9 3
-15 0 -15 -8z"/>
<path d="M3661 7184 c0 -11 3 -14 6 -6 3 7 2 16 -1 19 -3 4 -6 -2 -5 -13z"/>
<path d="M3725 7180 c3 -5 10 -10 16 -10 5 0 9 5 9 10 0 6 -7 10 -16 10 -8 0
-12 -4 -9 -10z"/>
<path d="M3700 7100 c-13 -8 -12 -10 3 -10 9 0 17 5 17 10 0 12 -1 12 -20 0z"/>
<path d="M3219 7953 c-13 -15 -12 -15 9 -4 23 12 28 21 13 21 -5 0 -15 -7 -22
-17z"/>
<path d="M3175 7930 c-3 -6 1 -7 9 -4 18 7 21 14 7 14 -6 0 -13 -4 -16 -10z"/>
</g>
</svg>
