<?xml version="1.0" standalone="no"?>
<!DOCTYPE svg PUBLIC "-//W3C//DTD SVG 20010904//EN"
 "http://www.w3.org/TR/2001/REC-SVG-20010904/DTD/svg10.dtd">
<svg version="1.0" xmlns="http://www.w3.org/2000/svg"
 width="564.000000pt" height="751.000000pt" viewBox="0 0 564.000000 751.000000"
 preserveAspectRatio="xMidYMid meet">

<g transform="translate(0.000000,751.000000) scale(0.100000,-0.100000)"
fill="#000000" stroke="none">
<path d="M1710 7489 c0 -13 -4 -18 -12 -13 -7 5 -9 0 -6 -14 3 -12 3 -20 -1
-19 -7 2 -52 -26 -103 -66 -25 -19 -38 -37 -38 -52 0 -13 -5 -27 -11 -30 -5
-4 -8 -12 -6 -18 2 -7 -2 -27 -10 -45 -20 -47 -16 -287 4 -270 22 18 40 69 61
175 36 177 88 274 153 288 16 4 28 12 26 18 -2 7 0 24 4 40 7 26 6 27 -27 27
-28 0 -34 -4 -34 -21z"/>
<path d="M2283 7495 c-7 -19 4 -95 16 -110 5 -5 11 -21 14 -35 2 -14 4 17 3
67 -1 68 -4 93 -14 93 -7 0 -15 -7 -19 -15z"/>
<path d="M2528 7503 c7 -3 16 -2 19 1 4 3 -2 6 -13 5 -11 0 -14 -3 -6 -6z"/>
<path d="M2577 7490 c3 -11 10 -17 15 -14 6 4 14 0 19 -7 7 -12 9 -12 9 0 0
11 5 9 21 -5 l22 -19 -17 33 c-13 25 -23 32 -45 32 -24 0 -28 -3 -24 -20z"/>
<path d="M2674 7494 c10 -9 28 -33 41 -53 36 -54 65 -87 65 -75 0 6 -11 24
-24 39 -20 23 -23 33 -15 49 8 18 8 18 -3 5 -10 -15 -13 -13 -27 15 -9 17 -25
33 -35 35 -19 3 -19 2 -2 -15z"/>
<path d="M2779 7495 c11 -23 120 -143 121 -134 0 3 -15 22 -32 41 -18 19 -48
52 -66 74 -18 21 -29 30 -23 19z"/>
<path d="M2122 7465 c-13 -29 -15 -129 -3 -160 6 -15 10 -4 14 40 3 33 10 79
15 103 11 49 -7 60 -26 17z"/>
<path d="M2356 7455 c17 -39 11 -122 -12 -147 -19 -20 -22 -43 -32 -203 -5
-99 -19 -241 -31 -315 -11 -74 -25 -175 -31 -225 -11 -92 -33 -194 -50 -230
-24 -53 -39 -118 -45 -204 -7 -81 -12 -100 -42 -150 -30 -50 -67 -155 -148
-426 -14 -49 -47 -142 -72 -205 -91 -231 -255 -708 -288 -840 -104 -413 -247
-1083 -260 -1215 -12 -126 -49 -859 -60 -1195 -24 -714 -38 -956 -57 -993 -13
-26 -40 -172 -45 -242 -3 -55 -1 -63 26 -92 16 -18 32 -33 35 -33 4 0 31 -16
61 -35 34 -21 61 -32 71 -28 13 5 15 3 9 -7 -6 -9 -4 -12 6 -8 8 3 23 0 33 -8
11 -7 23 -11 27 -8 5 3 9 1 9 -3 0 -5 8 -9 18 -10 9 0 76 -8 147 -16 72 -9
166 -18 210 -21 l80 -6 26 48 c91 165 109 203 123 257 8 33 29 112 46 175 31
119 31 115 71 705 11 156 7 592 -6 805 l-5 75 51 38 c60 45 67 60 154 311 35
100 84 235 108 301 25 66 74 199 110 295 36 96 85 227 110 290 32 85 49 146
61 232 15 102 43 215 51 206 2 -2 14 -30 28 -63 13 -33 54 -131 91 -218 36
-87 103 -256 147 -375 122 -331 160 -429 257 -667 127 -314 227 -571 277 -715
24 -69 63 -172 88 -230 58 -137 135 -345 241 -655 47 -137 102 -293 122 -345
20 -52 44 -119 55 -148 39 -113 74 -140 166 -127 46 7 254 83 293 108 14 8 25
8 44 -2 46 -25 38 -61 -14 -61 -21 0 -34 -38 -19 -56 6 -7 7 -33 3 -63 -4 -35
-3 -51 5 -51 7 0 11 22 11 60 0 52 2 59 18 53 9 -3 25 -13 34 -20 21 -19 44
-8 28 12 -14 17 -3 38 16 31 11 -4 12 -2 4 14 -5 10 -15 22 -20 25 -6 4 -8 16
-5 28 2 12 2 16 -1 10 -9 -21 -24 -15 -24 11 0 29 39 39 112 30 47 -6 48 -6
48 21 0 27 -1 27 -60 23 -33 -1 -60 -2 -60 0 0 5 161 78 215 97 54 20 105 66
105 95 0 10 5 20 11 22 13 4 5 57 -26 173 -26 101 -36 128 -77 195 -29 46 -48
98 -69 180 -16 63 -29 123 -29 133 0 29 -95 410 -135 542 -46 151 -93 293
-139 415 -19 52 -38 113 -41 135 -5 29 -19 52 -52 85 -42 41 -123 182 -123
213 0 7 -19 51 -41 98 -37 74 -42 94 -45 169 -7 172 -13 207 -53 318 -57 161
-81 254 -81 320 0 31 -7 118 -16 192 -11 94 -16 206 -14 370 l2 235 -31 73
c-37 90 -96 200 -121 227 -25 26 -72 134 -65 146 13 20 21 157 14 236 l-4 42
-25 -24 -25 -24 -47 63 c-26 35 -65 99 -86 142 -94 189 -112 274 -71 340 16
26 17 33 6 28 -12 -4 -14 0 -10 15 3 12 1 21 -6 21 -6 0 -11 -7 -11 -15 0 -8
-3 -15 -7 -15 -12 0 -76 24 -90 33 -6 4 -14 3 -18 -3 -7 -11 -57 -5 -84 9 -9
5 -33 23 -54 39 -43 35 -37 46 28 49 151 8 245 16 245 22 0 4 -43 46 -95 95
-53 48 -92 92 -89 98 4 6 3 8 -3 5 -12 -8 -50 33 -126 133 -58 77 -159 202
-206 255 -15 17 -40 48 -56 70 -17 22 -36 45 -44 51 -8 6 -11 16 -7 23 4 6 3
10 -2 9 -9 -3 -27 19 -145 174 -50 66 -81 89 -37 29 36 -52 6 -35 -46 26 -27
31 -54 63 -61 72 -9 13 -29 15 -107 13 -142 -6 -194 4 -230 42 -19 20 -26 24
-20 11z m117 -87 c-2 -5 5 -8 16 -8 11 0 26 -7 35 -15 8 -8 18 -15 23 -15 4 0
22 -17 38 -37 54 -66 74 -83 100 -83 14 0 25 -6 25 -12 0 -10 2 -10 8 0 10 14
42 6 42 -12 1 -18 42 -61 85 -86 57 -34 64 -40 109 -89 131 -139 257 -285 301
-346 53 -74 93 -114 163 -162 82 -57 132 -99 132 -110 0 -4 -73 -7 -162 -6
-137 2 -198 -2 -377 -28 -117 -16 -227 -32 -245 -35 -24 -4 -27 -3 -16 5 12 8
4 11 -32 11 -27 0 -50 -5 -55 -13 -16 -26 -57 -35 -113 -26 -30 5 -66 9 -80 8
-52 -3 -105 32 -83 55 12 12 12 40 0 48 -15 9 -13 98 3 108 15 9 22 68 9 76
-6 3 -7 19 -4 35 4 19 3 29 -5 29 -7 0 -10 -7 -6 -15 3 -8 2 -15 -3 -15 -11 0
-35 80 -32 105 2 11 13 42 26 68 l23 48 -27 12 c-14 6 -28 15 -31 19 -3 4 -6
89 -5 189 0 137 3 183 13 186 6 3 12 11 12 19 0 8 4 14 10 14 5 0 13 12 16 27
9 34 25 51 43 45 8 -3 11 0 7 6 -3 6 4 9 18 8 13 0 22 -4 19 -8z m1351 -1814
c3 -8 2 -12 -4 -9 -6 3 -10 10 -10 16 0 14 7 11 14 -7z m33 -96 c-3 -7 -5 -2
-5 12 0 14 2 19 5 13 2 -7 2 -19 0 -25z m10 -40 c-3 -8 -6 -5 -6 6 -1 11 2 17
5 13 3 -3 4 -12 1 -19z m170 -920 c-3 -7 -5 -2 -5 12 0 14 2 19 5 13 2 -7 2
-19 0 -25z m380 -1640 c-3 -8 -6 -5 -6 6 -1 11 2 17 5 13 3 -3 4 -12 1 -19z
m410 -1070 c-3 -8 -6 -5 -6 6 -1 11 2 17 5 13 3 -3 4 -12 1 -19z m-2850 -430
c-3 -7 -5 -2 -5 12 0 14 2 19 5 13 2 -7 2 -19 0 -25z"/>
<path d="M4004 7426 c-20 -25 -31 -32 -37 -23 -5 7 -6 3 -2 -10 5 -17 2 -23
-9 -23 -15 0 -21 -26 -18 -72 1 -9 24 -74 53 -145 61 -154 64 -166 41 -159 -9
2 -32 7 -50 11 -29 6 -31 9 -20 23 12 15 11 16 -5 3 -17 -13 -106 -11 -202 4
-24 4 -26 3 -10 -4 11 -5 31 -10 45 -10 14 -1 43 -10 63 -20 21 -11 56 -22 78
-26 34 -6 45 -15 74 -58 22 -32 36 -45 39 -36 2 8 10 31 16 51 10 34 13 36 38
27 22 -8 32 -24 56 -88 l29 -79 54 44 c29 24 86 66 126 93 39 27 88 63 107 80
34 30 37 31 100 25 36 -3 69 -9 74 -12 5 -3 6 0 3 6 -9 14 51 22 126 18 92 -5
66 9 -40 22 -89 11 -301 7 -289 -6 6 -5 -49 -62 -61 -62 -4 0 -30 -26 -58 -56
-27 -31 -65 -68 -82 -81 -28 -21 -34 -23 -46 -11 -8 8 -18 25 -22 38 -4 14
-13 35 -21 48 -10 15 -11 22 -3 22 7 0 1 9 -12 21 -20 17 -21 22 -9 30 12 8
11 9 -5 7 -15 -2 -20 3 -20 22 0 14 -5 30 -11 35 -6 6 -35 64 -63 130 -48 113
-50 121 -34 134 17 13 17 13 1 8 -10 -4 -18 -2 -18 3 0 6 5 10 10 10 6 0 10 7
10 16 0 8 4 12 10 9 6 -3 7 1 4 10 -4 9 2 25 11 35 10 11 16 23 13 26 -4 3
-19 -10 -34 -30z"/>
<path d="M2925 7390 c10 -11 20 -20 23 -20 3 0 -3 9 -13 20 -10 11 -20 20 -23
20 -3 0 3 -9 13 -20z"/>
<path d="M1664 7253 c2 -10 7 -39 11 -66 3 -26 10 -59 15 -72 5 -14 9 -29 8
-33 -6 -21 27 -142 39 -142 7 0 13 -7 13 -17 0 -9 3 -14 6 -10 4 3 3 14 -1 24
-10 22 -11 28 -19 78 -7 44 -27 154 -31 170 -1 6 -7 23 -13 38 -7 16 -12 33
-12 38 0 5 -5 9 -11 9 -6 0 -8 -8 -5 -17z"/>
<path d="M2107 7158 c-13 -69 -15 -103 -7 -133 14 -57 12 -126 -4 -173 -11
-30 -12 -50 -4 -83 12 -54 5 -183 -12 -224 -7 -16 -14 -35 -15 -41 -11 -49
-51 -142 -72 -166 -8 -9 -12 -21 -9 -26 3 -5 -3 -17 -14 -27 -11 -10 -20 -15
-20 -10 0 4 -7 2 -15 -5 -8 -6 -14 -15 -13 -18 2 -21 -5 -33 -29 -47 l-28 -16
29 6 c42 9 91 53 149 136 29 40 57 74 62 75 6 2 19 -11 30 -28 26 -40 45 -47
45 -16 0 13 9 64 19 113 20 93 102 649 100 682 0 10 -14 -54 -29 -141 -24
-133 -46 -229 -65 -281 -3 -5 -4 23 -3 63 1 39 -2 75 -5 79 -4 3 -7 -12 -7
-33 0 -52 -19 -156 -31 -168 -5 -6 -9 15 -9 55 0 35 -5 96 -11 134 -6 39 -14
95 -19 125 -4 30 -4 60 -1 65 4 6 7 25 5 43 -1 17 3 32 8 32 5 0 6 5 2 12 -4
7 -6 34 -5 60 1 26 1 48 -1 48 -3 0 -12 -42 -21 -92z"/>
<path d="M4630 6988 c0 -11 28 -10 35 1 3 6 -4 9 -15 8 -11 -1 -20 -5 -20 -9z"/>
<path d="M4568 6973 c7 -3 16 -2 19 1 4 3 -2 6 -13 5 -11 0 -14 -3 -6 -6z"/>
<path d="M3295 6940 c3 -5 8 -10 11 -10 2 0 4 5 4 10 0 6 -5 10 -11 10 -5 0
-7 -4 -4 -10z"/>
<path d="M3331 6904 c8 -19 94 -120 124 -144 17 -15 3 8 -34 52 -62 76 -98
113 -90 92z"/>
<path d="M4458 6833 c19 -8 14 -25 -7 -18 -11 3 -24 -1 -32 -12 -12 -15 -12
-16 4 -10 10 4 27 7 38 7 11 0 19 7 20 18 0 10 3 12 6 5 2 -7 12 -13 22 -13
51 0 113 -34 161 -88 56 -63 62 -63 24 1 -43 70 -127 116 -209 116 -22 0 -34
-3 -27 -6z"/>
<path d="M3973 6723 c-18 -33 -19 -42 -8 -68 l13 -30 5 25 c9 40 18 110 14
110 -2 0 -13 -17 -24 -37z"/>
<path d="M4216 6745 c-16 -9 -36 -13 -43 -11 -10 4 -13 -8 -13 -47 0 -71 11
-86 41 -58 13 12 29 19 37 16 7 -2 11 -1 7 4 -3 5 8 19 25 31 34 24 39 55 11
70 -26 13 -30 13 -65 -5z"/>
<path d="M4309 6614 c-9 -9 -28 -17 -42 -17 -14 -1 -23 -5 -21 -9 2 -4 -6 -10
-18 -14 -12 -3 -28 -13 -36 -20 -7 -8 -22 -14 -33 -14 -19 0 -19 1 -3 28 l16
27 -21 -25 c-11 -14 -21 -28 -21 -32 0 -19 58 -5 134 32 45 22 85 40 89 40 3
0 22 -14 42 -31 24 -22 35 -26 35 -16 0 8 -6 18 -12 20 -10 4 -10 6 0 6 6 1
12 6 12 12 0 6 -7 9 -15 5 -8 -3 -15 0 -15 7 0 20 -72 21 -91 1z"/>
<path d="M4196 6604 c-5 -14 -4 -15 9 -4 17 14 19 20 6 20 -5 0 -12 -7 -15
-16z"/>
<path d="M4265 6610 c-3 -6 1 -7 9 -4 18 7 21 14 7 14 -6 0 -13 -4 -16 -10z"/>
<path d="M4445 6559 c-4 -6 -5 -12 -2 -15 2 -3 7 2 10 11 7 17 1 20 -8 4z"/>
<path d="M3876 6551 c-6 -9 31 -121 39 -121 3 0 11 13 19 29 14 25 13 31 -3
62 -19 34 -44 48 -55 30z"/>
<path d="M4083 6458 c7 -21 -1 -48 -14 -48 -5 0 -14 12 -19 26 -6 14 -14 22
-20 19 -11 -7 4 -37 39 -77 13 -14 20 -31 16 -37 -8 -14 22 -10 52 7 31 17 42
42 32 71 -7 19 -12 22 -21 13 -16 -16 -38 -15 -38 2 0 7 -8 20 -17 27 -15 12
-16 12 -10 -3z"/>
<path d="M3851 6425 c-1 -13 -4 -16 -9 -8 -14 22 -30 -2 -34 -52 -3 -27 -8
-57 -11 -65 -6 -12 3 -16 42 -18 39 -2 57 3 87 23 20 14 47 25 60 25 31 0 30
13 0 34 -23 15 -26 14 -53 -8 -29 -24 -29 -24 -28 -3 0 12 4 28 9 35 4 7 5 16
2 19 -3 4 -6 1 -6 -6 0 -7 -4 -9 -10 -6 -5 3 -10 1 -10 -6 0 -20 -28 9 -33 34
-4 20 -4 20 -6 2z"/>
<path d="M3910 6369 c0 -5 5 -7 10 -4 6 3 10 8 10 11 0 2 -4 4 -10 4 -5 0 -10
-5 -10 -11z"/>
<path d="M4067 6303 c-17 -16 -4 -49 37 -93 36 -41 44 -57 49 -102 7 -74 25
-108 54 -108 16 0 22 -4 17 -11 -5 -8 2 -10 22 -6 18 3 45 -2 69 -13 65 -29
117 -50 125 -50 18 0 -30 77 -55 88 -32 15 -121 16 -130 2 -4 -7 -13 -7 -25 0
-17 9 -40 68 -55 143 -3 17 -10 25 -17 21 -7 -4 -8 -3 -4 5 5 7 -3 23 -18 38
-14 14 -31 40 -38 59 -12 34 -19 40 -31 27z"/>
<path d="M3810 6278 c0 -13 49 -80 88 -117 52 -50 134 -217 135 -274 1 -23 -2
-51 -7 -62 l-8 -20 17 20 c27 32 14 101 -36 200 -24 48 -66 113 -94 144 -27
31 -60 70 -72 86 -12 17 -23 27 -23 23z"/>
<path d="M4138 5894 c-32 -17 -34 -26 -12 -48 11 -11 31 -16 65 -15 28 1 45 5
38 9 -6 4 -20 5 -30 3 -13 -4 -19 0 -19 11 0 9 5 16 11 16 5 0 7 -5 3 -12 -5
-7 -3 -8 5 -4 7 5 10 10 7 13 -3 3 0 15 6 27 11 20 10 20 -9 4 -11 -10 -26
-18 -33 -18 -9 0 -7 5 6 15 26 20 -1 19 -38 -1z"/>
<path d="M5065 1066 c0 -35 3 -62 8 -59 9 6 9 95 -1 110 -4 7 -8 -16 -7 -51z"/>
<path d="M5156 818 c-10 -57 -29 -132 -43 -166 -27 -69 -26 -98 5 -202 l16
-55 7 55 c4 30 12 98 18 150 7 52 21 130 32 173 16 64 18 85 9 113 -6 19 -15
34 -19 34 -4 0 -15 -46 -25 -102z"/>
<path d="M4576 874 c-22 -21 -20 -27 4 -12 11 7 20 16 20 20 0 12 -7 10 -24
-8z"/>
<path d="M4780 861 c0 -17 30 -25 43 -12 8 8 8 11 0 11 -6 0 -18 3 -27 6 -9 3
-16 1 -16 -5z"/>
<path d="M1165 760 c-3 -5 1 -10 9 -10 9 0 16 5 16 10 0 6 -4 10 -9 10 -6 0
-13 -4 -16 -10z"/>
<path d="M4620 740 c0 -5 7 -10 15 -10 8 0 15 5 15 10 0 6 -7 10 -15 10 -8 0
-15 -4 -15 -10z"/>
<path d="M4785 610 c-3 -5 -1 -10 4 -10 6 0 11 5 11 10 0 6 -2 10 -4 10 -3 0
-8 -4 -11 -10z"/>
<path d="M4590 591 c0 -6 5 -13 10 -16 6 -3 10 1 10 9 0 9 -4 16 -10 16 -5 0
-10 -4 -10 -9z"/>
<path d="M4560 520 c0 -5 5 -10 10 -10 6 0 10 5 10 10 0 6 -4 10 -10 10 -5 0
-10 -4 -10 -10z"/>
<path d="M4600 480 c0 -5 5 -10 10 -10 6 0 10 5 10 10 0 6 -4 10 -10 10 -5 0
-10 -4 -10 -10z"/>
<path d="M4562 428 c-1 -30 11 -47 32 -48 5 0 3 7 -4 15 -7 8 -10 22 -6 30 3
8 0 15 -7 15 -8 0 -6 4 3 10 13 8 13 10 -1 10 -11 0 -16 -10 -17 -32z"/>
<path d="M507 323 c6 -16 5 -16 -10 -4 -11 8 -17 9 -17 3 0 -6 9 -16 20 -22
16 -9 20 -8 21 7 1 12 3 10 9 -7 5 -17 8 -19 9 -7 1 9 6 17 13 17 17 0 -2 16
-29 25 -19 5 -22 3 -16 -12z"/>
<path d="M550 287 c0 -9 4 -18 9 -21 5 -4 8 1 7 9 -3 21 -16 31 -16 12z"/>
<path d="M4446 265 c-3 -8 3 -19 12 -25 15 -10 14 -11 -4 -7 -22 5 -26 -6 -10
-32 7 -11 5 -13 -6 -8 -13 4 -14 0 -7 -30 8 -40 18 -48 69 -63 61 -17 67 -10
11 14 -57 25 -91 59 -48 49 22 -5 22 -5 2 10 -14 12 -16 16 -6 17 11 0 9 4 -5
15 -17 13 -17 14 -2 15 22 0 28 12 21 38 -6 25 -18 29 -27 7z"/>
<path d="M648 233 c7 -3 16 -2 19 1 4 3 -2 6 -13 5 -11 0 -14 -3 -6 -6z"/>
</g>
</svg>
