<?xml version="1.0" standalone="no"?>
<!DOCTYPE svg PUBLIC "-//W3C//DTD SVG 20010904//EN"
 "http://www.w3.org/TR/2001/REC-SVG-20010904/DTD/svg10.dtd">
<svg version="1.0" xmlns="http://www.w3.org/2000/svg"
 width="564.000000pt" height="564.000000pt" viewBox="0 0 564.000000 564.000000"
 preserveAspectRatio="xMidYMid meet">

<g transform="translate(0.000000,564.000000) scale(0.100000,-0.100000)"
fill="#000000" stroke="none">
<path d="M2564 5271 c-18 -4 -47 -17 -65 -28 -19 -11 -47 -23 -62 -27 -16 -4
-33 -17 -39 -31 -6 -14 -15 -25 -20 -25 -5 0 -6 -4 -3 -10 3 -5 -4 -28 -16
-52 -36 -71 -31 -177 14 -316 35 -107 46 -185 29 -207 -4 -5 -18 -11 -32 -13
-28 -4 -51 -28 -44 -47 3 -7 -2 -15 -10 -18 -9 -4 -16 -12 -16 -19 0 -7 -42
-35 -93 -63 -110 -59 -220 -163 -260 -246 -30 -61 -74 -223 -83 -308 -4 -31
-12 -63 -19 -71 -6 -8 -26 -55 -44 -105 -18 -49 -37 -102 -43 -118 -8 -20 -7
-31 2 -42 10 -12 8 -16 -13 -24 -29 -11 -46 -53 -40 -98 4 -27 2 -32 -18 -35
-26 -3 -28 -12 -53 -168 -2 -14 -16 -83 -30 -154 -15 -71 -27 -145 -28 -165
-1 -20 -8 -46 -16 -58 -8 -13 -12 -33 -8 -46 3 -14 -1 -33 -10 -45 -10 -15
-14 -41 -13 -80 2 -31 -1 -67 -5 -80 -5 -15 -2 -31 9 -48 19 -30 16 -44 -35
-144 l-39 -76 16 -47 c8 -26 21 -47 27 -47 7 0 20 -16 29 -35 16 -33 26 -40
55 -36 10 2 12 -4 7 -21 -19 -61 -162 -318 -177 -318 -6 0 -3 12 7 26 9 14 15
27 13 28 -2 1 -22 7 -46 13 -41 10 -42 10 -50 -18 -8 -33 -8 -33 -63 -24 -22
4 -43 5 -45 2 -3 -3 -9 -29 -14 -59 -11 -69 -69 -236 -107 -313 -40 -80 -127
-296 -148 -368 -24 -82 -56 -271 -47 -278 4 -3 39 -11 77 -19 80 -15 105 -25
105 -44 0 -26 53 -39 198 -51 l82 -7 -39 -77 c-57 -111 -71 -146 -71 -178 0
-16 -9 -36 -21 -46 -13 -12 -18 -24 -14 -37 4 -11 -1 -30 -9 -42 -9 -12 -16
-32 -16 -43 0 -12 -9 -40 -20 -63 -11 -22 -20 -52 -20 -65 0 -23 6 -24 163
-50 194 -32 450 -50 617 -46 114 4 123 6 141 28 38 47 11 91 -56 91 -21 0 -68
5 -104 11 -141 24 -221 101 -215 209 2 30 10 72 19 92 8 21 15 50 15 63 0 14
4 25 10 25 10 0 50 71 50 89 0 8 42 76 54 88 2 2 42 -15 90 -38 69 -32 95 -40
120 -35 17 4 60 11 96 16 112 15 142 29 168 80 12 24 22 57 22 74 0 16 -16
118 -35 227 -19 110 -35 203 -35 208 0 5 29 30 65 56 64 45 153 140 222 237
l35 48 29 -60 c15 -33 39 -71 51 -83 26 -26 70 -125 62 -138 -3 -5 6 -42 20
-82 13 -39 27 -106 31 -147 12 -157 56 -317 151 -553 72 -178 87 -209 120
-254 21 -27 22 -35 13 -57 -10 -20 -9 -30 3 -48 12 -18 14 -41 11 -94 l-5 -70
207 2 c184 2 234 -3 170 -19 -11 -3 3 -5 32 -6 99 -2 220 32 398 112 94 43
112 59 99 94 -16 47 -51 59 -133 45 -89 -15 -182 -15 -218 -1 -93 38 -123 55
-123 71 0 9 -4 20 -10 23 -5 3 -10 18 -10 33 0 42 -47 162 -85 217 -19 29 -39
74 -46 105 -6 30 -26 105 -44 165 -19 61 -43 146 -54 190 -10 44 -20 85 -22
90 -1 6 3 37 10 70 22 97 9 337 -23 450 -14 50 -44 176 -67 280 -48 226 -117
441 -188 586 -28 58 -51 108 -51 112 0 3 17 7 38 9 l37 3 5 88 c4 67 10 91 21
98 11 5 19 30 23 69 4 33 10 60 14 60 4 -1 27 -26 52 -57 83 -105 133 -154
162 -160 23 -4 28 -11 28 -33 0 -35 22 -54 57 -47 23 4 38 -7 110 -81 46 -47
86 -96 89 -109 4 -14 16 -26 32 -30 25 -6 25 -6 -22 -49 -25 -24 -46 -48 -46
-53 0 -14 25 -20 41 -10 8 5 23 6 33 3 13 -4 25 1 37 17 l17 23 -5 -27 c-8
-41 23 -35 76 15 43 39 45 43 45 97 -1 143 2 136 -95 238 -73 76 -88 98 -84
116 8 30 -26 74 -65 82 -21 5 -32 15 -40 39 -6 18 -27 49 -48 68 -20 20 -48
52 -62 72 -43 63 -55 78 -72 97 -10 11 -18 23 -18 28 0 5 -13 22 -29 37 -17
16 -27 33 -23 42 3 8 -3 21 -14 29 -11 8 -19 26 -19 41 0 18 -7 30 -22 37 -13
5 -23 15 -23 22 0 6 -16 25 -36 41 -27 22 -34 35 -30 50 4 11 0 24 -9 32 -8 7
-15 18 -15 25 0 7 -9 24 -21 38 -18 24 -19 33 -11 94 14 103 -6 230 -50 318
-11 22 -47 84 -80 137 -49 81 -57 101 -48 117 20 38 11 70 -30 115 l-40 43 39
7 c61 9 91 41 96 101 8 86 15 105 40 111 34 8 37 26 15 90 -17 48 -18 63 -9
89 10 25 9 47 -5 105 -22 98 -21 114 9 130 57 31 43 99 -29 144 -82 50 -308
89 -392 67z m-558 -2222 c3 -36 -2 -93 -11 -133 -11 -51 -14 -112 -12 -216 3
-128 6 -155 32 -230 15 -47 34 -90 42 -96 7 -6 13 -16 13 -23 0 -6 4 -19 9
-29 28 -56 39 -185 18 -219 -4 -7 -9 -29 -12 -50 -2 -21 -11 -87 -19 -148 -9
-60 -17 -127 -19 -148 -2 -22 -11 -43 -23 -52 -16 -12 -17 -17 -6 -34 10 -18
10 -21 -2 -21 -8 0 -28 26 -43 58 -16 31 -68 135 -116 230 -85 166 -88 174
-77 208 7 19 12 51 12 70 0 19 7 42 16 50 14 15 14 25 -3 110 l-19 95 35 28
c33 28 34 31 35 107 2 75 30 200 67 299 8 22 28 79 43 127 16 48 30 85 32 83
2 -2 6 -32 8 -66z m1654 -503 c0 -8 3 -21 6 -30 4 -10 1 -16 -9 -16 -17 0 -32
34 -22 50 9 15 25 12 25 -4z m-1961 -462 c2 -1 -4 -22 -12 -46 -9 -24 -19 -61
-23 -83 -7 -39 -7 -39 -20 35 -19 113 -19 111 19 103 17 -3 34 -7 36 -9z m91
-81 c0 -7 4 -13 9 -13 5 0 39 -60 76 -132 77 -151 88 -178 76 -178 -5 0 -26
36 -47 80 -20 44 -39 78 -41 76 -2 -2 9 -30 25 -62 16 -33 33 -69 37 -82 6
-21 4 -23 -16 -20 -20 3 -31 26 -85 183 -66 190 -72 212 -49 181 8 -11 15 -26
15 -33z m9 -116 c55 -165 62 -200 32 -150 -11 17 -26 35 -33 40 -8 4 -24 57
-37 118 -12 61 -25 118 -27 128 -3 9 -1 17 4 17 6 0 33 -69 61 -153z m-209 54
c0 -33 -4 -63 -10 -66 -6 -4 -10 16 -11 52 -1 51 -2 54 -10 27 -5 -17 -13 -82
-18 -145 -5 -74 -9 -94 -10 -57 -2 87 -30 84 -46 -5 -7 -37 -18 -44 -44 -28
-17 11 -5 32 14 24 18 -6 19 1 5 28 -9 15 -1 35 40 104 27 47 50 89 50 93 0
10 22 32 32 32 4 0 8 -27 8 -59z m144 -111 c8 -63 12 -119 9 -124 -13 -21 -25
45 -29 154 -4 134 0 128 20 -30z m-92 -5 c0 -63 3 -81 8 -60 7 24 8 19 7 -25
-2 -40 -6 -56 -17 -58 -13 -2 -15 19 -16 140 -1 95 2 134 8 117 5 -13 10 -64
10 -114z m61 -34 c4 -57 4 -101 1 -99 -11 12 -30 178 -21 194 5 8 10 14 12 12
1 -2 5 -50 8 -107z m-102 -63 l-11 -33 5 40 c3 22 6 54 7 70 1 27 2 26 5 -7 2
-20 -1 -51 -6 -70z m229 -38 c6 -11 7 -20 2 -20 -6 0 -12 9 -15 20 -3 11 -3
20 -1 20 2 0 8 -9 14 -20z"/>
<path d="M1801 1975 c0 -5 6 -21 14 -35 8 -14 14 -20 14 -15 0 6 -6 21 -14 35
-8 14 -14 21 -14 15z"/>
<path d="M1830 1905 c0 -5 5 -17 10 -25 5 -8 10 -10 10 -5 0 6 -5 17 -10 25
-5 8 -10 11 -10 5z"/>
<path d="M0 30 c0 -20 5 -30 15 -30 10 0 15 10 15 30 0 20 -5 30 -15 30 -10 0
-15 -10 -15 -30z"/>
</g>
</svg>
