<?xml version="1.0" standalone="no"?>
<!DOCTYPE svg PUBLIC "-//W3C//DTD SVG 20010904//EN"
 "http://www.w3.org/TR/2001/REC-SVG-20010904/DTD/svg10.dtd">
<svg version="1.0" xmlns="http://www.w3.org/2000/svg"
 width="564.000000pt" height="564.000000pt" viewBox="0 0 564.000000 564.000000"
 preserveAspectRatio="xMidYMid meet">

<g transform="translate(0.000000,564.000000) scale(0.100000,-0.100000)"
fill="#000000" stroke="none">
<path d="M2700 5430 c-14 -4 -37 -5 -52 -2 -15 2 -49 -1 -77 -8 -72 -17 -131
-73 -167 -155 l-27 -66 -39 6 c-47 8 -68 -6 -68 -46 0 -20 8 -34 28 -46 15 -9
29 -18 31 -20 2 -1 -8 -12 -23 -24 -45 -36 -59 -74 -52 -146 6 -61 6 -64 -19
-73 -33 -13 -73 -3 -102 23 l-23 20 0 -20 c0 -36 43 -86 98 -113 l54 -26 -42
-13 c-28 -8 -44 -20 -50 -37 -14 -35 -13 -36 9 -24 51 27 131 -8 131 -57 0
-14 -7 -10 -26 15 -19 24 -33 32 -58 32 -72 0 -101 -79 -50 -139 l26 -31 -26
-30 c-14 -17 -28 -47 -32 -68 -3 -20 -13 -61 -21 -91 -8 -29 -13 -69 -10 -88
7 -42 -26 -271 -48 -336 -9 -27 -31 -72 -49 -100 -18 -29 -67 -122 -108 -207
-135 -277 -219 -385 -324 -420 -34 -12 -65 -28 -68 -36 -3 -8 6 -46 20 -85
l26 -71 -43 -44 c-50 -51 -55 -52 -185 -23 -53 11 -97 19 -99 17 -1 -2 -51
-174 -109 -383 -59 -209 -114 -400 -122 -424 -7 -25 -13 -45 -11 -46 1 -1 83
-17 182 -35 99 -18 187 -36 195 -41 10 -6 5 -7 -15 -4 -94 16 -296 45 -309 45
-16 0 -86 -126 -86 -153 0 -9 15 -16 38 -20 20 -3 192 -33 382 -67 636 -114
835 -148 839 -144 2 2 -13 151 -33 331 -21 181 -49 425 -62 543 -34 300 -19
265 -127 281 l-91 14 -19 49 c-13 35 -15 51 -7 56 14 9 -54 64 -104 85 -20 9
-36 18 -36 20 0 3 25 52 55 108 47 88 77 128 209 271 154 167 193 223 218 316
l13 45 3 -42 c2 -29 -4 -56 -22 -92 -14 -27 -32 -88 -41 -135 -28 -160 -56
-448 -58 -594 l-2 -147 45 -5 c25 -3 51 -9 57 -13 7 -5 33 -74 59 -155 25 -81
65 -208 89 -282 74 -230 73 -212 57 -770 -13 -425 -16 -452 -61 -599 -16 -53
-41 -142 -55 -199 -32 -125 -84 -263 -136 -358 l-39 -71 22 -21 c61 -56 166
-72 229 -35 65 38 118 277 122 550 l2 148 82 209 c98 249 109 284 121 401 8
67 7 120 -3 205 -8 63 -13 116 -12 117 1 2 26 -43 54 -100 29 -56 77 -131 107
-167 192 -228 284 -372 362 -565 61 -148 87 -190 207 -333 l86 -104 0 -108 c0
-77 4 -111 13 -118 31 -26 138 31 191 101 38 50 43 94 16 153 -41 93 -91 226
-86 231 2 3 26 -23 53 -58 79 -102 104 -129 124 -129 25 0 24 4 -10 53 -16 23
-63 103 -105 177 -102 179 -104 180 -217 180 -101 0 -140 14 -163 58 -8 15
-35 95 -60 177 -83 273 -122 359 -228 508 -111 157 -218 375 -218 446 0 18 28
88 65 165 37 75 89 205 118 296 l53 162 74 28 c79 28 160 67 160 76 0 9 -182
317 -233 394 -55 83 -94 134 -178 230 -89 102 -116 170 -87 223 6 12 47 68 91
125 73 93 97 116 97 94 0 -31 34 -260 50 -335 11 -51 20 -108 20 -128 0 -52
45 -202 85 -284 23 -47 74 -116 156 -210 132 -153 164 -198 186 -259 7 -23 43
-81 80 -130 63 -86 66 -88 99 -83 19 3 34 3 34 -1 0 -4 -22 -50 -48 -102 -27
-52 -53 -109 -59 -126 -10 -29 -15 -31 -118 -54 l-108 -24 6 -70 c3 -39 18
-273 33 -521 15 -247 30 -454 34 -458 8 -9 257 51 455 109 146 43 775 244 792
253 7 4 -18 60 -76 166 -48 88 -159 291 -245 450 -87 160 -163 296 -170 303
-9 10 -20 9 -54 -4 -41 -17 -42 -17 -74 10 -18 14 -55 44 -83 66 -27 22 -72
47 -100 56 -67 22 -72 27 -78 81 -6 56 -20 68 -96 83 -31 6 -65 13 -77 15 -48
10 -74 50 -195 292 -68 137 -143 279 -167 316 -56 86 -58 104 -67 522 -6 294
-16 405 -40 468 -6 13 -2 17 17 17 67 0 88 65 42 131 -35 51 -77 68 -114 46
-27 -16 -28 -16 -34 5 -7 27 -4 30 54 52 98 37 123 127 62 220 -17 27 -29 53
-26 57 11 18 -38 89 -97 140 -49 42 -68 68 -96 128 -35 79 -58 108 -107 144
-36 25 -123 46 -156 37z m470 -600 c0 -29 -22 -54 -57 -64 -28 -9 -28 -9 -3
45 11 24 20 55 20 69 l1 25 19 -24 c11 -13 20 -36 20 -51z m-827 -16 c-6 -17
-41 -27 -79 -22 l-29 4 33 13 c19 8 40 27 49 45 l16 31 8 -28 c4 -16 5 -35 2
-43z m821 -210 c20 -19 21 -58 2 -74 -21 -17 -56 -9 -73 17 -14 20 -13 24 11
48 29 29 39 31 60 9z m-1530 -1590 c13 -5 14 -9 5 -20 -13 -16 -29 -9 -29 12
0 16 2 16 24 8z m31 -81 l-6 -28 22 22 22 22 39 -30 c35 -28 70 -100 56 -115
-7 -6 -216 30 -224 39 -8 8 52 94 74 106 24 15 25 14 17 -16z m183 -78 c28
-57 30 -65 14 -65 -13 0 -23 17 -39 65 -12 36 -18 65 -14 65 4 0 21 -29 39
-65z m-288 6 c-6 -12 -17 -21 -25 -21 -21 0 -19 10 7 37 25 26 36 16 18 -16z
m2126 -186 c-19 -29 -31 -32 -40 -10 -8 22 2 41 27 52 29 13 35 -8 13 -42z
m264 -92 c49 -37 87 -70 84 -75 -13 -21 -46 -2 -114 67 -41 41 -71 75 -67 75
4 0 47 -30 97 -67z m-167 15 c6 12 13 22 17 22 12 0 69 -140 70 -171 0 -12
-112 -31 -122 -21 -25 25 -38 168 -16 190 10 10 15 6 27 -15 l14 -28 10 23z
m177 -110 c0 -6 -61 -30 -66 -26 -3 4 -34 124 -34 134 0 9 99 -98 100 -108z
m-289 -46 c-3 -48 -12 -62 -43 -62 -15 0 -13 8 10 59 15 32 29 57 31 54 3 -2
4 -25 2 -51z m49 -13 c0 -18 -4 -28 -10 -24 -5 3 -10 20 -10 36 0 18 4 28 10
24 6 -3 10 -20 10 -36z"/>
</g>
</svg>
