<?xml version="1.0" standalone="no"?>
<!DOCTYPE svg PUBLIC "-//W3C//DTD SVG 20010904//EN"
 "http://www.w3.org/TR/2001/REC-SVG-20010904/DTD/svg10.dtd">
<svg version="1.0" xmlns="http://www.w3.org/2000/svg"
 width="564.000000pt" height="846.000000pt" viewBox="0 0 564.000000 846.000000"
 preserveAspectRatio="xMidYMid meet">

<g transform="translate(0.000000,846.000000) scale(0.100000,-0.100000)"
fill="#000000" stroke="none">
<path d="M2444 8022 c-23 -9 -49 -23 -58 -31 -10 -8 -45 -29 -79 -46 -52 -26
-67 -40 -90 -83 -39 -73 -52 -165 -38 -272 19 -135 20 -248 4 -396 -12 -122
-12 -145 2 -205 8 -37 16 -81 16 -96 2 -24 2 -25 6 -5 4 21 7 19 34 -20 36
-54 36 -68 2 -69 -34 -1 -79 -17 -50 -18 15 -1 17 -13 18 -88 1 -75 3 -81 9
-43 4 25 6 48 4 51 -2 4 3 20 11 35 8 16 15 25 16 19 0 -5 4 -1 9 10 7 17 9
15 9 -12 1 -18 5 -52 11 -75 5 -24 15 -72 22 -107 12 -62 32 -87 48 -61 5 7 4
24 -1 38 -18 47 1 67 59 65 26 -1 10 34 -27 63 -46 34 -66 66 -57 89 5 15 15
16 64 11 81 -10 91 -14 98 -41 6 -24 29 -39 45 -29 23 14 5 -13 -33 -51 -24
-22 -52 -54 -63 -69 -44 -63 -226 -239 -250 -241 -23 -3 -24 -1 -22 50 2 30
-1 51 -6 48 -4 -3 -23 -2 -40 1 -23 4 -36 14 -45 36 -7 16 -21 32 -30 35 -19
6 -62 67 -62 88 0 7 -6 19 -12 26 -11 11 -10 13 3 8 13 -4 15 1 13 21 -1 15 4
36 13 47 9 11 -37 -34 -102 -100 -65 -66 -151 -164 -191 -217 -41 -54 -98
-124 -128 -155 -29 -32 -66 -71 -81 -88 -34 -37 -123 -156 -157 -210 -38 -60
-71 -160 -64 -189 14 -58 87 -113 161 -122 11 -1 43 -11 70 -22 78 -30 219
-68 350 -92 161 -31 162 -31 191 -93 19 -42 25 -78 30 -163 4 -60 11 -114 16
-120 12 -16 1 -40 -28 -59 -17 -11 -24 -25 -24 -49 0 -32 -12 -79 -31 -121 -4
-11 -19 -67 -33 -125 -22 -94 -30 -138 -52 -275 -3 -22 -10 -60 -15 -85 -9
-45 -5 -469 6 -525 9 -51 25 -243 35 -415 5 -91 14 -214 20 -275 6 -60 13
-139 15 -175 3 -36 10 -94 15 -130 5 -36 9 -72 9 -80 1 -16 5 -77 21 -290 5
-69 9 -194 10 -279 1 -85 3 -157 5 -160 1 -3 6 -139 10 -301 3 -162 8 -297 10
-300 2 -3 6 -93 9 -200 4 -107 9 -224 11 -260 3 -36 10 -157 15 -269 6 -113
15 -223 20 -245 6 -23 11 -68 13 -101 3 -58 30 -135 48 -135 4 0 13 -18 19
-40 13 -48 20 -51 170 -87 58 -14 128 -31 155 -39 28 -7 91 -14 141 -16 79 -1
95 1 122 20 38 28 82 79 82 97 0 8 9 16 19 20 29 9 36 39 44 200 4 64 0 134
-9 195 -8 52 -21 156 -29 230 -8 74 -21 171 -30 215 -8 44 -19 118 -24 165 -5
47 -14 105 -20 130 -5 25 -13 74 -16 110 -3 36 -12 101 -20 145 -7 44 -16 122
-20 173 -4 52 -8 103 -10 115 -8 44 -24 194 -31 282 -3 50 -8 106 -10 125 -31
303 -48 984 -35 1408 3 114 15 153 24 84 6 -42 20 -99 48 -192 11 -36 24 -90
30 -120 22 -109 26 -127 33 -139 4 -7 10 -22 11 -34 2 -12 13 -58 25 -102 29
-113 77 -341 85 -405 3 -19 7 -46 10 -60 6 -34 18 -113 40 -275 3 -23 7 -51
10 -63 2 -12 11 -86 20 -165 8 -78 18 -161 20 -184 12 -101 14 -133 20 -223 3
-52 7 -144 10 -205 13 -335 17 -441 20 -446 2 -3 6 -102 9 -220 17 -650 19
-684 43 -684 6 0 15 -3 19 -8 4 -4 23 -8 43 -8 28 -1 30 -3 11 -6 -31 -6 -52
-22 -44 -34 3 -5 9 -7 14 -4 4 3 10 1 12 -4 3 -8 210 -34 413 -50 103 -9 156
-23 188 -53 11 -9 46 -31 79 -48 59 -32 63 -33 146 -26 113 9 137 21 136 68
-1 21 -10 50 -20 65 l-18 28 -6 -27 c-7 -37 -36 -69 -55 -62 -8 4 -15 10 -15
15 0 5 -7 26 -17 47 -9 20 -15 40 -15 45 1 4 -2 7 -8 7 -5 0 -10 7 -10 15 0 8
4 15 9 15 5 0 18 3 28 7 16 6 16 5 4 -10 -12 -15 -11 -17 3 -17 9 0 16 4 16
10 0 5 7 7 15 4 11 -5 13 -2 9 9 -4 12 0 15 18 13 13 -1 29 -6 36 -10 7 -4 12
-1 12 8 0 22 -40 46 -79 46 l-34 0 43 31 43 31 -7 162 c-4 88 -12 183 -17 209
-5 27 -9 83 -8 125 0 43 -10 145 -21 227 -12 83 -24 170 -27 195 -3 25 -20
117 -38 205 -19 88 -39 187 -45 220 -7 33 -20 96 -31 140 -29 122 -58 250 -64
282 -3 15 -12 53 -20 83 -94 336 -117 423 -140 545 -13 66 -37 185 -55 265
-40 182 -63 321 -94 571 -3 25 -15 92 -26 150 -10 57 -36 203 -56 324 -20 121
-43 240 -51 265 -7 25 -20 97 -28 160 -8 63 -16 124 -19 135 -2 11 -7 40 -11
65 -12 81 -38 165 -54 178 -10 8 -15 24 -13 42 2 17 -1 30 -6 30 -8 0 -20 28
-26 60 -1 3 -5 11 -10 19 -5 8 -10 40 -10 72 -1 45 -4 55 -13 47 -7 -6 -13
-16 -13 -22 0 -6 -5 -29 -11 -50 -9 -33 -13 -37 -21 -23 -5 10 -13 15 -18 12
-4 -3 -10 20 -12 51 -1 31 0 58 5 61 4 2 7 30 7 62 0 40 5 63 15 71 8 7 12 16
9 21 -14 24 21 82 77 129 64 54 68 63 11 28 -34 -21 -35 -21 -28 -2 4 10 12
41 17 67 5 27 11 53 14 58 30 48 40 325 15 433 -6 27 -9 51 -7 53 16 15 -82
246 -107 256 -9 4 -16 12 -16 19 0 8 -8 21 -17 29 -10 9 -34 38 -53 64 -19 26
-44 57 -55 69 -11 11 -27 33 -34 49 -8 15 -18 27 -22 27 -5 0 -15 13 -24 29
-8 16 -22 36 -31 45 -14 15 -12 21 33 74 27 31 60 73 73 92 13 19 25 37 27 39
1 2 8 -1 15 -6 7 -6 38 -20 70 -31 46 -17 57 -19 62 -7 7 20 -9 70 -34 105
-12 16 -18 34 -15 40 3 5 2 10 -3 10 -11 0 -34 49 -27 59 2 5 -7 32 -21 60
-13 29 -22 56 -19 61 3 4 -11 29 -31 55 -19 26 -31 44 -25 40 6 -3 11 -4 11
-1 0 6 -75 46 -86 46 -3 0 -3 -11 0 -25 5 -19 3 -23 -8 -19 -9 4 -14 20 -14
48 1 23 -4 51 -11 62 -10 16 -11 11 -8 -33 2 -28 0 -58 -5 -67 -7 -12 -5 -16
7 -16 11 0 15 -11 16 -37 2 -72 7 -98 29 -172 25 -86 22 -99 -47 -188 -49 -64
-62 -75 -77 -66 -5 3 -6 1 -2 -5 3 -6 -2 -16 -13 -21 -27 -15 -32 7 -36 194
-2 88 -1 148 1 133 3 -16 10 -28 16 -28 6 0 8 13 5 33 -3 17 -13 75 -21 127
-9 52 -23 114 -32 138 -8 23 -14 47 -12 54 2 6 11 -11 20 -38 15 -45 17 -46
19 -19 3 47 0 67 -18 108 -16 38 -28 46 -35 25 -3 -7 -10 2 -16 20 -6 17 -7
32 -3 32 13 0 -6 75 -29 121 -11 21 -34 54 -51 74 -17 19 -27 35 -23 35 5 1
-2 7 -16 15 -19 11 -21 14 -8 15 22 0 88 -56 229 -193 61 -60 116 -106 122
-104 7 2 11 18 11 35 -2 28 0 30 17 21 26 -13 25 -62 -3 -108 -12 -20 -25 -38
-30 -41 -8 -7 12 -80 22 -80 8 0 40 94 40 116 0 8 6 14 13 14 28 0 1 102 -61
232 -33 70 -70 141 -81 157 -28 39 -142 114 -205 135 -63 20 -159 20 -212 -2z
m12 -175 c12 -7 42 -31 67 -53 l47 -41 -45 -5 c-50 -6 -109 -41 -124 -74 -16
-35 17 -48 48 -20 14 13 16 10 13 -30 -4 -41 -2 -45 27 -57 41 -18 95 -10 125
18 l25 23 20 -34 c28 -47 75 -229 75 -291 0 -66 12 -64 15 4 1 34 10 25 17
-18 16 -95 16 -102 5 -95 -6 4 -11 17 -11 29 l-1 22 -12 -23 c-7 -12 -16 -19
-20 -16 -4 4 -7 2 -7 -5 0 -34 -142 -64 -178 -38 -15 12 -7 64 15 88 12 15 12
19 -2 32 -19 20 -19 31 0 47 10 8 19 9 28 3 15 -12 59 9 49 24 -10 15 -122 26
-137 13 -10 -8 -13 -6 -11 7 0 11 -11 23 -32 32 -33 15 -57 66 -45 97 10 26
-7 81 -33 109 -35 38 -56 101 -47 140 3 16 6 37 5 45 -2 20 16 41 53 62 35 21
43 21 71 5z m99 3 c3 -6 -1 -7 -9 -4 -18 7 -21 14 -7 14 6 0 13 -4 16 -10z
m43 -142 c3 -13 -4 -17 -36 -16 -21 0 -50 -3 -63 -7 -21 -7 -21 -6 6 19 34 30
88 33 93 4z m-19 -37 c9 -6 10 -11 2 -15 -15 -10 -53 3 -46 15 8 11 26 11 44
0z m-294 -346 c12 -28 44 -81 71 -119 27 -38 48 -74 46 -80 -2 -6 -1 -8 3 -4
4 3 23 -5 42 -18 20 -13 42 -24 50 -24 17 0 32 -38 42 -111 7 -55 6 -60 -18
-83 -14 -14 -62 -36 -105 -50 -130 -43 -119 -46 -166 45 -51 100 -56 143 -35
294 9 66 19 149 22 185 5 56 7 62 16 40 6 -14 20 -48 32 -75z m185 35 c0 -5
-4 -10 -10 -10 -5 0 -10 5 -10 10 0 6 5 10 10 10 6 0 10 -4 10 -10z m601 -147
c13 -16 12 -17 -3 -4 -17 13 -22 21 -14 21 2 0 10 -8 17 -17z m-307 -145 c3
-35 7 -116 8 -180 l3 -118 -35 1 c-47 1 -78 13 -61 24 11 6 11 9 0 16 -12 8
-12 11 1 18 12 8 12 11 -4 17 -18 7 -18 8 1 15 29 11 41 74 29 154 -1 10 6 35
16 56 10 21 18 43 18 49 0 5 4 10 9 10 5 0 12 -28 15 -62z m426 -181 c0 -10
-5 -17 -12 -15 -11 4 -17 19 -32 83 -6 28 -5 28 19 -10 14 -22 25 -48 25 -58z
m-1210 -221 c0 -2 -7 -7 -16 -10 -8 -3 -12 -2 -9 4 6 10 25 14 25 6z m791 -24
c4 -54 -5 -167 -25 -317 -3 -16 -7 -68 -11 -115 -7 -98 -25 -129 -51 -92 -29
42 -36 22 -8 -25 l27 -48 -2 -280 c-4 -409 -1 -380 -46 -369 -23 6 -26 10 -21
35 3 15 1 31 -4 34 -6 3 -10 13 -10 21 0 9 5 12 11 8 8 -4 9 1 3 17 -15 41 -6
339 11 372 15 30 11 112 -6 123 -5 3 -9 14 -9 25 0 18 3 17 26 -8 28 -30 22
-11 -6 22 -30 34 -30 72 -5 310 3 28 8 104 11 170 3 66 7 122 10 126 2 3 26 7
54 8 41 0 50 -3 51 -17z m-652 -396 c6 -13 6 -40 1 -60 -10 -43 -5 -134 11
-231 6 -38 13 -117 15 -175 2 -58 8 -114 13 -125 10 -21 21 -75 15 -75 -2 0
-24 11 -50 25 -26 14 -61 25 -77 25 -31 0 -87 15 -119 31 -10 5 -27 9 -37 9
-11 0 -23 5 -26 11 -4 6 -14 8 -22 5 -8 -3 -11 -1 -8 4 3 6 -1 10 -10 10 -25
0 -105 41 -99 51 3 5 -2 6 -11 3 -8 -4 -21 -2 -28 2 -7 5 -5 2 5 -8 29 -26 23
-55 -13 -62 -17 -3 -36 -3 -41 0 -6 4 -18 7 -27 8 -25 2 -94 46 -118 76 -12
15 -25 38 -28 52 l-7 26 62 -3 c33 -2 67 -9 75 -15 21 -17 30 -7 55 57 30 81
35 88 55 85 13 -3 15 2 10 20 -4 16 -3 19 3 9 7 -9 12 -10 16 -2 4 6 5 14 3
19 -3 4 2 14 11 22 14 13 15 12 9 -2 -4 -12 -2 -15 8 -11 8 3 12 9 9 14 -3 5
0 9 7 9 13 0 59 46 59 60 0 5 5 12 12 16 7 5 8 3 3 -7 -13 -20 111 88 135 118
11 14 20 23 20 19 0 -4 8 -2 18 3 9 6 32 11 50 11 25 0 35 -5 41 -24z m531
-337 c0 -6 -4 -7 -10 -4 -5 3 -10 11 -10 16 0 6 5 7 10 4 6 -3 10 -11 10 -16z
m-513 -551 c-3 -8 -6 -5 -6 6 -1 11 2 17 5 13 3 -3 4 -12 1 -19z m3 -138 c0
-45 -4 -60 -14 -60 -18 0 -26 21 -21 60 4 28 20 60 31 60 2 0 4 -27 4 -60z
m1016 -215 c-18 -27 -40 -26 -44 3 -3 19 1 22 27 20 28 -2 30 -4 17 -23z m796
-4696 c-13 -5 -29 -6 -34 -2 -7 3 -8 1 -4 -5 4 -6 -6 -18 -24 -27 -16 -8 -30
-20 -30 -25 0 -6 -5 -10 -11 -10 -8 0 -8 5 1 15 7 8 10 21 7 29 -4 10 -1 13 7
10 8 -3 20 1 27 9 7 8 29 14 49 15 31 0 33 0 12 -9z m-5 -76 c4 -10 24 -34 45
-54 35 -32 38 -37 23 -49 -18 -15 -34 -4 -40 26 -2 11 -4 21 -4 23 -1 2 -9 -3
-19 -12 -16 -14 -21 -15 -36 -4 -15 11 -17 17 -7 35 10 19 9 22 -6 22 -17 1
-16 2 1 15 26 19 35 19 43 -2z m-1117 -44 c0 -14 -48 -41 -67 -37 -10 2 -19
13 -21 26 -3 17 2 22 18 22 12 0 18 -4 15 -10 -3 -5 -2 -10 3 -10 6 0 12 7 16
15 5 15 36 10 36 -6z"/>
<path d="M2460 7420 c0 -5 12 -10 26 -10 14 0 23 4 19 10 -3 6 -15 10 -26 10
-10 0 -19 -4 -19 -10z"/>
<path d="M2421 7063 c-1 -12 -6 -24 -11 -26 -6 -3 -5 -4 2 -3 7 2 22 -1 33 -7
19 -9 19 -9 4 9 -9 10 -19 26 -22 34 -4 10 -6 8 -6 -7z"/>
<path d="M2391 6994 c0 -11 3 -14 6 -6 3 7 2 16 -1 19 -3 4 -6 -2 -5 -13z"/>
<path d="M2430 6973 c-24 -12 -24 -13 -3 -13 12 0 25 5 28 11 11 16 2 17 -25
2z"/>
<path d="M1686 5953 c-6 -14 -5 -15 5 -6 7 7 10 15 7 18 -3 3 -9 -2 -12 -12z"/>
<path d="M2891 7444 c0 -11 3 -14 6 -6 3 7 2 16 -1 19 -3 4 -6 -2 -5 -13z"/>
<path d="M3201 6985 c0 -11 4 -29 9 -40 l9 -20 0 20 c0 11 -4 29 -9 40 l-9 20
0 -20z"/>
<path d="M3222 6895 c0 -16 2 -22 5 -12 2 9 2 23 0 30 -3 6 -5 -1 -5 -18z"/>
<path d="M2066 6750 c-55 -28 -55 -29 5 -24 30 3 58 10 64 16 7 7 3 8 -15 3
-22 -7 -23 -6 -11 9 18 21 5 20 -43 -4z"/>
<path d="M3192 6715 c-7 -14 -12 -42 -12 -61 0 -63 129 -166 155 -123 12 19
-26 103 -61 136 -19 18 -34 41 -34 52 0 30 -34 27 -48 -4z"/>
<path d="M2247 6563 c-4 -3 -7 -17 -7 -30 0 -14 -6 -23 -15 -23 -9 0 -15 -9
-15 -25 0 -19 5 -25 23 -25 35 0 48 30 33 74 -7 20 -16 33 -19 29z"/>
<path d="M2235 6439 c-4 -6 -5 -12 -2 -15 2 -3 7 2 10 11 7 17 1 20 -8 4z"/>
<path d="M3413 6393 c5 -26 2 -35 -11 -40 -26 -9 -71 -65 -72 -88 0 -23 29
-69 47 -72 6 -1 27 17 47 41 19 24 49 49 66 56 28 12 32 11 46 -8 20 -28 201
-185 299 -259 44 -33 106 -90 138 -126 l57 -65 -42 -37 -43 -36 50 25 c28 14
69 33 92 42 30 12 40 21 36 33 -10 29 -216 221 -288 268 -89 58 -133 100 -150
139 -7 17 -35 53 -61 81 -52 52 -122 84 -183 81 -32 -1 -33 -2 -28 -35z"/>
<path d="M4309 5655 c-8 -8 -42 -24 -74 -36 -33 -11 -64 -27 -68 -35 -4 -8
-15 -14 -24 -14 -9 0 -14 -2 -11 -5 5 -5 108 18 161 36 70 24 86 32 81 40 -3
5 0 9 5 9 6 0 11 5 11 10 0 16 -64 12 -81 -5z"/>
<path d="M4070 5570 c-9 -6 -10 -10 -3 -10 6 0 15 5 18 10 8 12 4 12 -15 0z"/>
<path d="M4098 5553 c7 -3 16 -2 19 1 4 3 -2 6 -13 5 -11 0 -14 -3 -6 -6z"/>
<path d="M4015 5540 c-11 -5 -33 -6 -50 -4 -32 5 -110 -28 -97 -41 4 -4 -2 -5
-13 -1 -11 3 -33 -1 -49 -9 -15 -8 -49 -15 -75 -15 -25 -1 -64 -7 -86 -15 -22
-8 -57 -15 -78 -15 -21 0 -51 -7 -68 -16 -16 -8 -39 -12 -49 -9 -28 9 -96 -5
-78 -16 11 -7 11 -9 -1 -9 -8 0 -12 -2 -9 -5 3 -3 34 1 69 9 35 8 132 25 214
36 104 15 187 34 270 62 125 42 163 58 135 57 -8 0 -24 -4 -35 -9z m-68 -16
c-3 -3 -12 -4 -19 -1 -8 3 -5 6 6 6 11 1 17 -2 13 -5z"/>
<path d="M4080 180 c0 -5 5 -10 10 -10 6 0 10 5 10 10 0 6 -4 10 -10 10 -5 0
-10 -4 -10 -10z"/>
</g>
</svg>
