<?xml version="1.0" standalone="no"?>
<!DOCTYPE svg PUBLIC "-//W3C//DTD SVG 20010904//EN"
 "http://www.w3.org/TR/2001/REC-SVG-20010904/DTD/svg10.dtd">
<svg version="1.0" xmlns="http://www.w3.org/2000/svg"
 width="564.000000pt" height="751.000000pt" viewBox="0 0 564.000000 751.000000"
 preserveAspectRatio="xMidYMid meet">

<g transform="translate(0.000000,751.000000) scale(0.100000,-0.100000)"
fill="#000000" stroke="none">
<path d="M2715 7470 c-3 -6 1 -7 9 -4 18 7 21 14 7 14 -6 0 -13 -4 -16 -10z"/>
<path d="M2848 6923 c7 -3 16 -2 19 1 4 3 -2 6 -13 5 -11 0 -14 -3 -6 -6z"/>
<path d="M2807 6746 c-4 -10 -5 -21 -2 -24 9 -9 17 6 13 25 -3 17 -4 17 -11
-1z"/>
<path d="M2801 6694 c0 -11 3 -14 6 -6 3 7 2 16 -1 19 -3 4 -6 -2 -5 -13z"/>
<path d="M2766 6661 c-2 -3 -6 -19 -7 -36 -4 -26 -1 -30 19 -29 19 1 22 -3 17
-20 -13 -44 -16 -76 -7 -76 17 0 27 53 22 110 -4 43 -9 55 -23 56 -9 1 -19 -1
-21 -5z"/>
<path d="M2300 6334 c-17 -15 -28 -29 -26 -32 5 -5 86 46 86 54 0 13 -33 0
-60 -22z"/>
<path d="M3100 6286 c0 -2 29 -21 65 -42 36 -21 65 -42 65 -46 0 -28 -204 -47
-495 -47 -226 0 -372 15 -368 37 3 11 -5 7 -140 -78 -43 -28 -82 -50 -85 -50
-9 0 -52 89 -57 119 -3 15 2 29 13 37 15 12 12 13 -25 14 -30 0 -43 -4 -43
-13 0 -26 -37 -48 -286 -171 -139 -69 -272 -142 -302 -166 -29 -23 -78 -76
-110 -116 -31 -41 -72 -94 -90 -117 -37 -48 -182 -257 -317 -457 -141 -209
-305 -443 -407 -579 -329 -440 -353 -474 -341 -494 45 -81 878 -857 919 -857
7 0 29 10 49 21 20 12 39 19 42 15 4 -3 0 -6 -8 -7 -8 0 13 -9 45 -20 48 -17
61 -18 67 -7 6 10 9 8 10 -7 1 -17 2 -16 10 5 8 22 5 -923 -6 -2025 -2 -192
-1 -360 1 -372 3 -12 13 -25 22 -29 10 -4 82 -8 162 -10 467 -10 601 -15 655
-24 33 -6 194 -9 359 -8 269 1 299 0 308 -15 12 -22 121 -23 169 -3 l34 14
-45 4 c-25 3 0 5 55 6 55 1 145 -3 199 -8 118 -12 697 -13 947 -2 131 5 180
11 194 22 16 13 17 46 11 525 -13 1125 -26 1729 -41 1949 l-5 69 22 -15 c36
-23 145 -57 166 -51 10 2 24 -3 31 -11 8 -9 29 -16 48 -16 32 0 55 19 282 244
135 134 289 280 341 326 52 46 141 126 197 180 l102 96 -55 69 c-30 38 -94
128 -141 199 -48 72 -123 183 -168 246 -88 123 -429 647 -484 743 -18 31 -36
57 -40 57 -5 0 -53 66 -107 148 -101 151 -210 272 -294 329 -25 16 -110 59
-190 95 -80 36 -201 93 -270 125 -69 33 -146 69 -172 81 -26 12 -57 35 -69 52
-22 28 -47 38 -62 23 -4 -3 0 -15 10 -25 9 -10 11 -18 5 -18 -6 0 -18 -15 -27
-32 -8 -18 -23 -43 -33 -56 l-17 -22 -71 43 c-83 51 -219 127 -228 127 -3 0
-6 -2 -6 -4z m-205 -376 l-20 -9 20 -1 20 -2 -20 -6 -20 -5 20 -8 c19 -7 19
-8 -2 -8 -18 -1 -23 5 -23 24 0 19 5 25 23 24 21 0 21 -1 2 -9z m42 -27 c-3
-10 -5 -4 -5 12 0 17 2 24 5 18 2 -7 2 -21 0 -30z m56 29 c3 7 6 4 6 -7 1 -14
-5 -21 -19 -21 -13 0 -20 7 -20 19 0 16 3 17 14 8 11 -9 15 -9 19 1z m-208
-42 c-3 -5 -12 -10 -18 -10 -8 0 -8 3 2 9 9 6 10 11 2 15 -6 4 -11 12 -11 17
0 6 7 3 16 -5 8 -9 12 -20 9 -26z m64 15 c0 -11 -3 -14 -6 -7 -4 10 -8 10 -19
1 -11 -9 -14 -8 -14 8 0 12 7 19 20 19 14 0 20 -7 19 -21z"/>
</g>
</svg>
