<?xml version="1.0" standalone="no"?>
<!DOCTYPE svg PUBLIC "-//W3C//DTD SVG 20010904//EN"
 "http://www.w3.org/TR/2001/REC-SVG-20010904/DTD/svg10.dtd">
<svg version="1.0" xmlns="http://www.w3.org/2000/svg"
 width="500.000000pt" height="500.000000pt" viewBox="0 0 500.000000 500.000000"
 preserveAspectRatio="xMidYMid meet">

<g transform="translate(0.000000,500.000000) scale(0.100000,-0.100000)"
fill="#000000" stroke="none">
<path d="M923 3234 c-20 -20 -24 -32 -20 -57 7 -43 250 -598 258 -589 3 4 11
21 18 38 11 29 5 47 -109 309 -80 182 -120 286 -117 301 5 30 2 30 -30 -2z"/>
<path d="M1664 3226 l-34 -34 0 -281 c0 -268 -1 -282 -20 -301 -24 -24 -5 -27
28 -4 49 34 52 53 52 348 0 236 2 277 16 290 9 10 11 16 4 16 -7 0 -27 -15
-46 -34z"/>
<path d="M1918 3231 l-33 -29 -3 -288 c-2 -248 -5 -291 -19 -306 -9 -10 -12
-18 -6 -18 19 0 64 42 75 69 5 15 9 134 9 290 -1 222 1 268 14 287 21 33 2 30
-37 -5z"/>
<path d="M2140 3253 c24 -9 61 -45 76 -76 21 -39 20 -137 -1 -177 -22 -42 -63
-80 -86 -80 -23 0 -59 -46 -59 -76 0 -16 29 -56 86 -119 64 -71 85 -100 81
-115 -6 -25 5 -26 26 -2 35 38 22 71 -68 172 -47 52 -84 101 -82 109 1 8 24
19 50 26 92 23 139 76 144 162 3 47 -1 66 -19 98 -27 45 -89 85 -133 84 -16 0
-23 -3 -15 -6z"/>
<path d="M2430 3241 c-15 -29 -12 -36 8 -18 9 8 33 20 52 25 l35 10 -42 1
c-32 1 -45 -4 -53 -18z"/>
<path d="M2706 3235 c-14 -13 -31 -36 -36 -50 -6 -15 -10 -142 -10 -295 0
-231 -2 -271 -16 -284 -13 -13 -13 -16 -1 -16 20 0 65 44 77 75 6 15 10 144
10 300 0 250 2 275 18 284 15 9 15 10 1 11 -9 0 -28 -11 -43 -25z"/>
<path d="M2900 3248 c19 -5 39 -14 45 -19 16 -16 26 -10 15 11 -8 15 -20 20
-53 19 l-42 -1 35 -10z"/>
<path d="M3114 3226 l-34 -34 0 -213 c0 -204 1 -216 24 -264 28 -60 56 -87
116 -114 61 -28 132 -27 196 3 47 22 114 87 114 111 0 5 -8 -2 -17 -16 -40
-65 -142 -101 -224 -79 -56 15 -123 80 -138 135 -6 24 -11 128 -11 254 0 186
2 217 17 233 30 34 -7 20 -43 -16z"/>
<path d="M4031 3230 c40 -38 54 -46 54 -29 0 6 -20 23 -45 37 l-45 26 36 -34z"/>
<path d="M3772 3224 c-80 -63 -84 -172 -10 -241 12 -12 79 -47 148 -77 68 -31
137 -69 153 -85 55 -54 45 -156 -19 -197 -13 -9 -23 -19 -20 -21 9 -10 76 44
100 81 35 53 35 114 1 172 -29 50 -57 68 -190 124 -55 23 -115 53 -132 66 -58
44 -60 119 -6 176 33 35 19 36 -25 2z"/>
<path d="M3726 2685 c-9 -24 -10 -22 36 -55 47 -34 75 -41 33 -8 -15 12 -35
34 -45 50 -14 24 -19 26 -24 13z"/>
<path d="M1820 2476 c0 -2 11 -6 25 -8 13 -3 22 -1 19 3 -5 9 -44 13 -44 5z"/>
<path d="M1998 2435 c4 -42 6 -45 31 -44 23 2 24 2 4 6 -19 4 -23 11 -23 44 0
21 -3 39 -8 39 -4 0 -6 -20 -4 -45z"/>
<path d="M2218 2470 c12 -5 27 -20 32 -32 6 -16 9 -18 9 -6 1 21 -26 48 -47
47 -12 0 -10 -3 6 -9z"/>
<path d="M2393 2473 c15 -4 18 -12 15 -44 -2 -21 0 -39 4 -39 5 0 8 18 8 39 0
29 5 41 18 44 9 3 -1 5 -23 5 -22 0 -32 -2 -22 -5z"/>
<path d="M2570 2435 c0 -25 3 -45 8 -45 4 0 7 20 7 45 0 25 -3 45 -7 45 -5 0
-8 -20 -8 -45z"/>
<path d="M2633 2435 c0 -27 2 -38 4 -22 2 15 2 37 0 50 -2 12 -4 0 -4 -28z"/>
<path d="M2783 2435 c0 -27 2 -38 4 -22 2 15 2 37 0 50 -2 12 -4 0 -4 -28z"/>
<path d="M2925 2435 c0 -25 3 -45 8 -45 4 0 7 15 7 33 l1 32 29 -35 29 -35 1
30 c0 21 -3 26 -9 16 -7 -10 -14 -6 -32 18 -12 17 -25 31 -28 31 -3 0 -6 -20
-6 -45z"/>
<path d="M2990 2465 c0 -8 2 -15 4 -15 2 0 6 7 10 15 3 8 1 15 -4 15 -6 0 -10
-7 -10 -15z"/>
<path d="M3180 2476 c0 -2 7 -7 16 -10 8 -3 12 -2 9 4 -6 10 -25 14 -25 6z"/>
<path d="M1797 2463 c-19 -19 1 -73 27 -73 5 0 2 6 -9 13 -12 10 -16 22 -13
40 6 29 5 31 -5 20z"/>
<path d="M2177 2463 c-19 -18 1 -73 26 -73 5 0 1 7 -8 17 -10 9 -15 26 -12 40
5 25 4 27 -6 16z"/>
<path d="M3137 2463 c-19 -18 1 -73 26 -73 5 0 1 7 -8 17 -10 9 -15 26 -12 40
5 25 4 27 -6 16z"/>
<path d="M3197 2410 c-3 -11 -1 -20 4 -20 5 0 9 9 9 20 0 11 -2 20 -4 20 -2 0
-6 -9 -9 -20z"/>
</g>
</svg>
