<?xml version="1.0" standalone="no"?>
<!DOCTYPE svg PUBLIC "-//W3C//DTD SVG 20010904//EN"
 "http://www.w3.org/TR/2001/REC-SVG-20010904/DTD/svg10.dtd">
<svg version="1.0" xmlns="http://www.w3.org/2000/svg"
 width="437.000000pt" height="640.000000pt" viewBox="0 0 437.000000 640.000000"
 preserveAspectRatio="xMidYMid meet">

<g transform="translate(0.000000,640.000000) scale(0.100000,-0.100000)"
fill="#000000" stroke="none">
<path d="M1992 6379 c-49 -24 -147 -142 -187 -224 -13 -27 -31 -93 -40 -145
-8 -52 -27 -132 -40 -176 -28 -92 -30 -117 -14 -197 15 -74 4 -160 -24 -192
-14 -15 -44 -30 -82 -40 -96 -24 -108 -44 -126 -201 -7 -71 -13 -163 -12 -204
0 -41 2 -163 4 -270 2 -107 0 -201 -5 -208 -10 -16 -25 5 -142 195 -41 66 -86
129 -100 138 -24 15 -29 15 -102 -9 -42 -14 -88 -26 -102 -26 -66 0 -100 -58
-100 -172 l0 -83 -53 -21 c-28 -12 -53 -18 -55 -13 -7 17 -51 9 -62 -11 -6
-11 -14 -20 -19 -20 -5 0 -28 25 -51 55 l-42 55 -18 -23 c-9 -12 -153 -214
-319 -450 l-301 -427 63 -226 64 -226 165 -54 165 -54 15 -38 15 -38 182 -13
c100 -7 184 -11 186 -9 1 1 12 48 23 103 12 55 59 283 106 506 l85 407 -25 63
c-14 35 -29 99 -33 143 -5 43 -14 82 -21 86 -9 6 -5 23 15 68 27 61 27 61 74
64 49 3 49 4 36 64 -5 24 -2 37 18 60 l25 28 32 -49 c17 -28 75 -137 128 -243
95 -190 135 -249 205 -298 l27 -19 -44 -109 c-27 -69 -60 -130 -88 -165 -56
-71 -129 -193 -203 -341 -66 -132 -138 -317 -131 -336 6 -17 153 -95 251 -135
74 -29 86 -31 160 -26 44 3 122 15 174 27 52 11 100 19 108 16 7 -3 13 -19 13
-36 l0 -31 -33 25 c-19 15 -41 26 -50 26 -34 0 -116 -147 -202 -365 -71 -179
-66 -258 19 -305 26 -14 28 -14 56 17 15 17 35 56 44 85 9 30 24 66 35 79 18
23 118 85 126 77 2 -1 -1 -142 -6 -313 -8 -264 -13 -333 -36 -465 -32 -182
-34 -313 -10 -471 27 -173 20 -387 -18 -534 -11 -41 -26 -68 -50 -92 -47 -45
-95 -117 -95 -141 0 -36 12 -53 112 -166 54 -61 123 -148 153 -193 30 -44 66
-90 80 -101 63 -50 284 -80 334 -46 20 15 23 22 17 60 -7 57 -45 130 -112 219
-60 79 -80 127 -98 230 -10 62 -14 70 -35 73 l-24 4 7 161 c10 241 25 401 46
508 27 131 40 260 40 404 0 95 4 128 19 161 24 52 28 75 41 200 8 86 18 123
64 241 31 76 68 184 83 240 l27 101 161 32 c162 32 396 102 492 148 29 13 66
39 82 57 36 42 70 130 77 204 5 50 3 61 -25 103 -50 78 -247 207 -371 242 -48
14 -64 26 -123 92 l-69 77 5 346 c3 320 6 364 36 591 28 212 32 262 27 375 -4
72 -9 149 -12 173 -5 32 -3 42 7 42 8 0 77 -31 154 -68 180 -88 229 -107 349
-137 55 -14 101 -27 103 -29 2 -2 -1 -86 -7 -187 -9 -161 -19 -239 -45 -340
-9 -37 3 -39 255 -39 192 0 386 -10 478 -26 29 -4 32 -3 32 20 0 31 19 41 90
49 33 4 102 27 170 56 l115 50 0 40 c0 32 7 47 33 74 l34 35 -184 488 -184
489 -82 3 -82 3 -112 146 c-112 145 -113 147 -113 200 0 62 -10 73 -69 73 -33
0 -37 2 -26 15 18 22 38 19 104 -16 43 -23 61 -28 69 -20 17 17 -1 40 -57 78
-84 57 -101 56 -255 -23 -146 -75 -247 -143 -264 -181 -7 -17 -6 -68 6 -192
27 -265 42 -480 34 -487 -10 -10 -152 34 -222 68 -79 40 -215 138 -215 155 0
35 -35 73 -119 128 -61 39 -94 67 -97 82 -4 14 4 54 20 97 39 106 44 171 17
225 -12 23 -37 59 -55 79 -26 28 -35 50 -41 92 -10 79 -37 133 -93 189 -59 59
-108 86 -187 100 -86 16 -125 14 -173 -10z m1454 -551 c26 -12 26 -13 20 -88
-12 -140 -17 -162 -37 -167 -12 -4 -19 -14 -19 -29 0 -17 -8 -28 -26 -34 -14
-6 -27 -10 -29 -10 -1 0 -17 52 -35 115 -20 74 -28 120 -23 130 7 12 110 93
120 95 1 0 14 -5 29 -12z m-1707 -1285 c-2 -48 3 -68 29 -118 18 -33 38 -68
45 -77 9 -13 9 -23 1 -35 -14 -22 -115 -106 -120 -100 -5 4 24 323 32 365 8
41 15 23 13 -35z m-855 -77 c-37 -33 -53 -33 -54 1 0 11 80 44 89 37 2 -2 -14
-19 -35 -38z m64 -41 c-29 -55 -41 -64 -53 -45 -6 10 61 97 77 99 3 1 -7 -24
-24 -54z"/>
</g>
</svg>
